<svg width="310" height="63" viewBox="0 0 310 63" fill="none" xmlns="http://www.w3.org/2000/svg">
<g clip-path="url(#clip0_2_1659)">
<rect width="2" height="63" fill="white" fill-opacity="0.14"/>
<rect x="6" width="5" height="63" fill="white" fill-opacity="0.14"/>
<rect x="15" width="1" height="63" fill="white" fill-opacity="0.14"/>
<rect x="20" width="1" height="63" fill="white" fill-opacity="0.14"/>
<rect x="25" width="5" height="63" fill="white" fill-opacity="0.14"/>
<rect x="34" width="3" height="63" fill="white" fill-opacity="0.14"/>
<rect x="41" width="2" height="63" fill="white" fill-opacity="0.14"/>
<rect x="47" width="2" height="63" fill="white" fill-opacity="0.14"/>
<rect x="53" width="5" height="63" fill="white" fill-opacity="0.14"/>
<rect x="62" width="1" height="63" fill="white" fill-opacity="0.14"/>
<rect x="67" width="1" height="63" fill="white" fill-opacity="0.14"/>
<rect x="72" width="5" height="63" fill="white" fill-opacity="0.14"/>
<rect x="81" width="3" height="63" fill="white" fill-opacity="0.14"/>
<rect x="88" width="2" height="63" fill="white" fill-opacity="0.14"/>
<rect x="94" width="2" height="63" fill="white" fill-opacity="0.14"/>
<rect x="100" width="5" height="63" fill="white" fill-opacity="0.14"/>
<rect x="109" width="1" height="63" fill="white" fill-opacity="0.14"/>
<rect x="114" width="1" height="63" fill="white" fill-opacity="0.14"/>
<rect x="119" width="5" height="63" fill="white" fill-opacity="0.14"/>
<rect x="128" width="2" height="63" fill="white" fill-opacity="0.14"/>
<rect x="134" width="2" height="63" fill="white" fill-opacity="0.14"/>
<rect x="140" width="2" height="63" fill="white" fill-opacity="0.14"/>
<rect x="146" width="3" height="63" fill="white" fill-opacity="0.14"/>
<rect x="153" width="5" height="63" fill="white" fill-opacity="0.14"/>
<rect x="162" width="2" height="63" fill="white" fill-opacity="0.14"/>
<rect x="168" width="1" height="63" fill="white" fill-opacity="0.14"/>
<rect x="173" width="1" height="63" fill="white" fill-opacity="0.14"/>
<rect x="178" width="5" height="63" fill="white" fill-opacity="0.14"/>
<rect x="187" width="2" height="63" fill="white" fill-opacity="0.14"/>
<rect x="193" width="3" height="63" fill="white" fill-opacity="0.14"/>
<rect x="200" width="2" height="63" fill="white" fill-opacity="0.14"/>
<rect x="206" width="2" height="63" fill="white" fill-opacity="0.14"/>
<rect x="212" width="2" height="63" fill="white" fill-opacity="0.14"/>
<rect x="218" width="5" height="63" fill="white" fill-opacity="0.14"/>
<rect x="227" width="2" height="63" fill="white" fill-opacity="0.14"/>
<rect x="233" width="5" height="63" fill="white" fill-opacity="0.14"/>
<rect x="242" width="2" height="63" fill="white" fill-opacity="0.14"/>
<rect x="248" width="2" height="63" fill="white" fill-opacity="0.14"/>
<rect x="254" width="5" height="63" fill="white" fill-opacity="0.14"/>
<rect x="263" width="2" height="63" fill="white" fill-opacity="0.14"/>
<rect x="269" width="2" height="63" fill="white" fill-opacity="0.14"/>
<rect x="275" width="2" height="63" fill="white" fill-opacity="0.14"/>
<rect x="281" width="2" height="63" fill="white" fill-opacity="0.14"/>
<rect x="287" width="5" height="63" fill="white" fill-opacity="0.14"/>
<rect x="296" width="1" height="63" fill="white" fill-opacity="0.14"/>
<rect x="301" width="1" height="63" fill="white" fill-opacity="0.14"/>
<rect x="306" width="5" height="63" fill="white" fill-opacity="0.14"/>
</g>
<defs>
<clipPath id="clip0_2_1659">
<rect width="310" height="63" fill="white"/>
</clipPath>
</defs>
</svg>
