<svg width="310" height="43" viewBox="0 0 310 43" fill="none" xmlns="http://www.w3.org/2000/svg">
<path d="M7.22461 2.29004C7.22461 2.84232 6.77689 3.29004 6.22461 3.29004H1.99902C1.44674 3.29004 0.999023 3.73775 0.999023 4.29004V6.64355C0.999023 7.19584 1.44674 7.64355 1.99902 7.64355H7.2168C7.76908 7.64355 8.2168 7.19584 8.2168 6.64355V5.10645C8.2168 4.55416 8.66451 4.10645 9.2168 4.10645H13.4424C13.9947 4.10645 14.4424 3.65873 14.4424 3.10645V1C14.4424 0.447715 14.8901 0 15.4424 0H296C296.552 0 297 0.447715 297 1V3.29004C297 3.84232 296.552 4.29004 296 4.29004H293C292.448 4.29004 292 4.73775 292 5.29004V7.67578C292 8.22807 292.448 8.67578 293 8.67578H296.856C297.409 8.67578 297.856 9.1235 297.856 9.67578V11.2734C297.856 11.8257 298.304 12.2734 298.856 12.2734H304.127C304.679 12.2734 305.127 11.8257 305.127 11.2734V8.8877C305.127 8.33541 304.679 7.8877 304.127 7.8877H300.271C299.718 7.8877 299.271 7.43998 299.271 6.8877V5.29004C299.271 4.73775 299.718 4.29004 300.271 4.29004H302.982C302.992 4.29004 303 4.29813 303 4.30811V4.30811C303 4.31808 303.008 4.32617 303.018 4.32617H309C309.552 4.32617 310 4.77389 310 5.32617V38.29C310 38.8423 309.552 39.29 309 39.29H304C303.448 39.29 303 39.7378 303 40.29V42C303 42.5523 302.552 43 302 43H5.99902C5.44674 43 4.99902 42.5523 4.99902 42V38.29C4.99902 37.7378 5.44674 37.29 5.99902 37.29H7.99902C8.55131 37.29 8.99902 37.7378 8.99902 38.29V39.6387C8.99902 40.191 9.44674 40.6387 9.99902 40.6387H13.5518C14.104 40.6387 14.5518 40.191 14.5518 39.6387V38.29C14.5518 37.7378 14.104 37.29 13.5518 37.29H10.999C10.4467 37.29 9.99902 36.8423 9.99902 36.29V35.29C9.99902 34.7378 9.55131 34.29 8.99902 34.29H3.99902C3.44674 34.29 2.99902 34.7378 2.99902 35.29V36.29C2.99902 36.8423 2.55131 37.29 1.99902 37.29H1C0.447715 37.29 0 36.8423 0 36.29V0.999999C0 0.447714 0.447715 0 1 0H6.22461C6.77689 0 7.22461 0.447715 7.22461 1V2.29004Z" fill="#2BC876"/>
</svg>
