<svg width="14" height="16" viewBox="0 0 14 16" fill="none" xmlns="http://www.w3.org/2000/svg">
<path d="M13 3.00004C12.863 2.42497 12.3796 2.00004 11.8043 2.00004L11 2.00004M9 6.33338C9.13705 6.90845 9.62041 7.33337 10.1957 7.33337H11M11 2.00004L10.2346 2.00004C9.55274 2.00004 9 2.597 9 3.33338C9 4.06975 9.55273 4.66671 10.2346 4.66671L11.7654 4.66671C12.4473 4.66671 13 5.26366 13 6.00004C13 6.73642 12.4473 7.33337 11.7654 7.33337H11M11 2.00004V1.33337M11 7.33337V8.00004M2.38021 5.33337C3.1969 3.92156 4.64217 2.91886 6.33335 2.70797M11.6199 10.6667C10.8032 12.0785 9.35789 13.0812 7.66671 13.2921M1 11.3334H3.66667M1 11.3334V8.66671H3.66667C4.40305 8.66671 5 9.26366 5 10C5 10.7364 4.40305 11.3334 3.66667 11.3334M1 11.3334V14H3.66667C4.40305 14 5 13.4031 5 12.6667C5 11.9303 4.40305 11.3334 3.66667 11.3334M3 14V14.6667M3 8.00004V8.66671" stroke="#09172D" stroke-width="1.5" stroke-linecap="round" stroke-linejoin="round"/>
</svg>
