<svg width="12" height="12" viewBox="0 0 12 12" fill="none" xmlns="http://www.w3.org/2000/svg">
<path d="M8.85939 8.85939C8.9969 8.83901 9.11933 8.81138 9.23463 8.77391C10.1226 8.4854 10.8187 7.78924 11.1072 6.9013C11.25 6.46195 11.25 5.91908 11.25 4.83333C11.25 3.74759 11.25 3.20471 11.1072 2.76537C10.8187 1.87742 10.1226 1.18126 9.23463 0.892752C8.79529 0.75 8.25241 0.75 7.16667 0.75C6.08092 0.75 5.53805 0.75 5.0987 0.892752C4.21076 1.18126 3.5146 1.87742 3.22609 2.76537C3.18862 2.88067 3.16099 3.0031 3.14061 3.14061M8.85939 8.85939C8.91667 8.47295 8.91667 7.96747 8.91667 7.16667C8.91667 6.08092 8.91667 5.53805 8.77391 5.0987C8.4854 4.21076 7.78924 3.5146 6.9013 3.22609C6.46195 3.08333 5.91908 3.08333 4.83333 3.08333C4.03253 3.08333 3.52705 3.08333 3.14061 3.14061M8.85939 8.85939C8.83901 8.9969 8.81138 9.11933 8.77391 9.23463C8.4854 10.1226 7.78924 10.8187 6.9013 11.1072C6.46195 11.25 5.91908 11.25 4.83333 11.25C3.74759 11.25 3.20471 11.25 2.76537 11.1072C1.87742 10.8187 1.18126 10.1226 0.892752 9.23463C0.75 8.79529 0.75 8.25241 0.75 7.16667C0.75 6.08092 0.75 5.53805 0.892752 5.0987C1.18126 4.21076 1.87742 3.5146 2.76537 3.22609C2.88067 3.18862 3.0031 3.16099 3.14061 3.14061" stroke="white" stroke-opacity="0.32" stroke-width="1.5" stroke-linecap="round" stroke-linejoin="round"/>
</svg>
