<svg width="15" height="12" viewBox="0 0 15 12" fill="none" xmlns="http://www.w3.org/2000/svg">
<path d="M11.3053 0.130659C11.0957 -0.0243108 10.8151 -0.0429613 10.5869 0.0829158C10.3587 0.208793 10.2247 0.456113 10.244 0.716022L10.3541 2.19821C10.3656 2.35425 10.3748 2.51042 10.3816 2.66667H4.16683C3.79864 2.66667 3.50016 2.96515 3.50016 3.33334C3.50016 3.70153 3.79864 4 4.16683 4H10.3816C10.3748 4.15625 10.3656 4.31242 10.3541 4.46846L10.244 5.95065C10.2247 6.21056 10.3587 6.45788 10.5869 6.58376C10.8151 6.70963 11.0957 6.69098 11.3053 6.53601C12.2863 5.81053 13.1676 4.96284 13.9274 4.01426C14.0862 3.81602 14.1668 3.57498 14.1668 3.33334C14.1668 3.09169 14.0862 2.85065 13.9274 2.65242C13.1676 1.70383 12.2863 0.856137 11.3053 0.130659Z" fill="#fff"/>
<path d="M4.75629 6.04936C4.77558 5.78945 4.64165 5.54213 4.41344 5.41625C4.18523 5.29037 3.90459 5.30902 3.69505 5.46399C2.71407 6.18947 1.83275 7.03717 1.07295 7.98575C0.914177 8.18398 0.833496 8.42502 0.833496 8.66667C0.833496 8.90832 0.914177 9.14936 1.07295 9.34758C1.83275 10.2962 2.71407 11.1439 3.69505 11.8693C3.90459 12.0243 4.18523 12.043 4.41344 11.9171C4.64165 11.7912 4.77558 11.5439 4.75629 11.284L4.64626 9.80179C4.63468 9.64575 4.62549 9.48958 4.61869 9.33333H10.8335C11.2017 9.33333 11.5002 9.03486 11.5002 8.66667C11.5002 8.29848 11.2017 8 10.8335 8H4.61869C4.62549 7.84375 4.63468 7.68758 4.64626 7.53155L4.75629 6.04936Z" fill="#fff"/>
</svg>
