<svg width="16" height="16" viewBox="0 0 16 16" fill="none" xmlns="http://www.w3.org/2000/svg">
<path d="M13.3337 9.00003C13.3337 9.92969 13.3337 10.3946 13.2415 10.7782C12.9489 11.997 11.9973 12.9486 10.7785 13.2412C10.3949 13.3334 9.92999 13.3334 9.00033 13.3334H8.00033C6.13349 13.3334 5.20007 13.3334 4.48703 12.97C3.85982 12.6505 3.34988 12.1406 3.03031 11.5134C2.66699 10.8003 2.66699 9.86689 2.66699 8.00003V7.66669C2.66699 6.11353 2.66699 5.33696 2.92073 4.72439C3.25904 3.90763 3.90795 3.25871 4.72471 2.9204C5.24262 2.70588 5.87775 2.67273 7.00033 2.6676M13.1735 6.30299C13.3484 5.21443 13.3801 4.11319 13.2683 3.02755C13.2602 2.94881 13.2257 2.87899 13.1735 2.82681M13.1735 2.82681C13.1213 2.77463 13.0515 2.74011 12.9727 2.732C11.8871 2.62013 10.7859 2.65191 9.69732 2.82681M13.1735 2.82681L6.66699 9.33329" stroke="white" stroke-opacity="0.32" stroke-width="1.5" stroke-linecap="round" stroke-linejoin="round"/>
</svg>
