<svg width="15" height="14" viewBox="0 0 15 14" fill="none" xmlns="http://www.w3.org/2000/svg">
<path d="M14.375 6.375V7.625H13.75V8.25H13.125V8.875H12.5V9.5H11.875V10.125H11.25V10.75H10.625V11.375H10V12H9.375V12.625H8.75V13.25H8.125V13.875H7.5V13.25H6.875V12.625H7.5V12H8.125V11.375H8.75V10.75H9.375V10.125H10V9.5H10.625V8.875H11.25V8.25H11.875V7.625H0.625V6.375H11.875V5.75H11.25V5.125H10.625V4.5H10V3.875H9.375V3.25H8.75V2.625H8.125V2H7.5V1.375H6.875V0.75H7.5V0.125H8.125V0.75H8.75V1.375H9.375V2H10V2.625H10.625V3.25H11.25V3.875H11.875V4.5H12.5V5.125H13.125V5.75H13.75V6.375H14.375Z" fill="#2BC876"/>
</svg>
