<svg width="264" height="146" viewBox="0 0 264 146" fill="none" xmlns="http://www.w3.org/2000/svg">
<g clip-path="url(#clip0_144_2297)">
<path opacity="0.26" d="M259.518 102.048V106.486H255.046V110.923H250.564V115.36H246.081H241.599H237.117H232.635H228.153H223.671H219.189H214.707H210.224H205.742H201.26H196.778H192.296H187.814H183.332H178.849H174.367H169.885H165.403H160.921H156.439H151.957H147.474H142.992H138.51H134.028H129.546H125.064H120.582H116.099H111.617H107.135H102.653H98.1709H93.6888H89.2066H84.7346H80.2525H75.7704H71.2882H66.8061H62.324H57.8418H53.3597V119.798H48.8775V124.235H44.3954V128.672H39.9133V133.11H35.4311V137.547H30.949V141.984H26.4668V137.547H21.9847V133.11V128.672V124.235V119.798V115.36H17.5026V110.923H13.0204V106.486H8.53829V102.048H4.05615V97.6111V93.1738V88.7364V84.2991V79.8718V75.4345V70.9972V66.5599V62.1225V57.6852V53.2479V48.8106V44.3732V39.9359V35.4986V31.0613V26.6239V22.1866V17.7493V13.312H8.53829V8.87465H13.0204V4.43732H17.5026V0H21.9847H26.4668H30.949H35.4311H39.9133H44.3954H48.8775H53.3597H57.8418H62.324H66.8061H71.2882H75.7704H80.2525H84.7346H89.2066H93.6888H98.1709H102.653H107.135H111.617H116.099H120.582H125.064H129.546H134.028H138.51H142.992H147.474H151.957H156.439H160.921H165.403H169.885H174.367H178.849H183.332H187.814H192.296H196.778H201.26H205.742H210.224H214.707H219.189H223.671H228.153H232.635H237.117H241.599H246.081H250.564V4.43732H255.046V8.87465H259.518V13.312H264V17.7493V22.1866V26.6239V31.0613V35.4986V39.9359V44.3732V48.8106V53.2479V57.6852V62.1225V66.5599V70.9972V75.4345V79.8718V84.2991V88.7364V93.1738V97.6111V102.048H259.518Z" fill="#2BC876"/>
<path d="M22.4105 141.563L17.9284 119.376L4.48193 106.064V17.3275L13.4462 8.45288H246.507L255.461 17.3275V106.064L246.507 114.939H53.7855L26.8926 141.563H22.4105Z" fill="white"/>
<path d="M246.508 8.45288H242.025V12.8902H246.508V8.45288Z" fill="#2BC876" fill-opacity="0.4"/>
<path d="M250.989 12.8901H246.507V17.3275H250.989V12.8901Z" fill="#2BC876" fill-opacity="0.4"/>
<path d="M255.471 17.3276H250.989V21.765H255.471V17.3276Z" fill="#2BC876" fill-opacity="0.4"/>
<path d="M192.721 8.45288H188.239V12.8902H192.721V8.45288Z" fill="#2BC876" fill-opacity="0.4"/>
<path d="M188.239 8.45288H183.757V12.8902H188.239V8.45288Z" fill="#2BC876" fill-opacity="0.4"/>
<path d="M183.757 8.45288H179.275V12.8902H183.757V8.45288Z" fill="#2BC876" fill-opacity="0.4"/>
<path d="M179.275 8.45288H174.793V12.8902H179.275V8.45288Z" fill="#2BC876" fill-opacity="0.4"/>
<path d="M174.793 8.45288H170.311V12.8902H174.793V8.45288Z" fill="#2BC876" fill-opacity="0.4"/>
<path d="M170.311 8.45288H165.829V12.8902H170.311V8.45288Z" fill="#2BC876" fill-opacity="0.4"/>
<path d="M165.829 8.45288H161.347V12.8902H165.829V8.45288Z" fill="#2BC876" fill-opacity="0.4"/>
<path d="M161.346 8.45288H156.864V12.8902H161.346V8.45288Z" fill="#2BC876" fill-opacity="0.4"/>
<path d="M156.864 8.45288H152.382V12.8902H156.864V8.45288Z" fill="#2BC876" fill-opacity="0.4"/>
<path d="M152.383 8.45288H147.9V12.8902H152.383V8.45288Z" fill="#2BC876" fill-opacity="0.4"/>
<path d="M147.9 8.45288H143.418V12.8902H147.9V8.45288Z" fill="#2BC876" fill-opacity="0.4"/>
<path d="M143.418 8.45288H138.936V12.8902H143.418V8.45288Z" fill="#2BC876" fill-opacity="0.4"/>
<path d="M138.936 8.45288H134.454V12.8902H138.936V8.45288Z" fill="#2BC876" fill-opacity="0.4"/>
<path d="M134.454 8.45288H129.972V12.8902H134.454V8.45288Z" fill="#2BC876" fill-opacity="0.4"/>
<path d="M129.971 8.45288H125.489V12.8902H129.971V8.45288Z" fill="#2BC876" fill-opacity="0.4"/>
<path d="M125.489 8.45288H121.007V12.8902H125.489V8.45288Z" fill="#2BC876" fill-opacity="0.4"/>
<path d="M121.008 8.45288H116.525V12.8902H121.008V8.45288Z" fill="#2BC876" fill-opacity="0.4"/>
<path d="M116.525 8.45288H112.043V12.8902H116.525V8.45288Z" fill="#2BC876" fill-opacity="0.4"/>
<path d="M112.043 8.45288H107.561V12.8902H112.043V8.45288Z" fill="#2BC876" fill-opacity="0.4"/>
<path d="M107.561 8.45288H103.079V12.8902H107.561V8.45288Z" fill="#2BC876" fill-opacity="0.4"/>
<path d="M103.079 8.45288H98.5967V12.8902H103.079V8.45288Z" fill="#2BC876" fill-opacity="0.4"/>
<path d="M98.5964 8.45288H94.1143V12.8902H98.5964V8.45288Z" fill="#2BC876" fill-opacity="0.4"/>
<path d="M94.1145 8.45288H89.6323V12.8902H94.1145V8.45288Z" fill="#2BC876" fill-opacity="0.4"/>
<path d="M89.6325 8.45288H85.1504V12.8902H89.6325V8.45288Z" fill="#2BC876" fill-opacity="0.4"/>
<path d="M85.1604 8.45288H80.6782V12.8902H85.1604V8.45288Z" fill="#2BC876" fill-opacity="0.4"/>
<path d="M80.6784 8.45288H76.1963V12.8902H80.6784V8.45288Z" fill="#2BC876" fill-opacity="0.4"/>
<path d="M76.196 8.45288H71.7139V12.8902H76.196V8.45288Z" fill="#2BC876" fill-opacity="0.4"/>
<path d="M71.7141 8.45288H67.2319V12.8902H71.7141V8.45288Z" fill="#2BC876" fill-opacity="0.4"/>
<path d="M67.2317 8.45288H62.7495V12.8902H67.2317V8.45288Z" fill="#2BC876" fill-opacity="0.4"/>
<path d="M62.7497 8.45288H58.2676V12.8902H62.7497V8.45288Z" fill="#2BC876" fill-opacity="0.4"/>
<path d="M58.2673 8.45288H53.7852V12.8902H58.2673V8.45288Z" fill="#2BC876" fill-opacity="0.4"/>
<path d="M53.7854 8.45288H49.3032V12.8902H53.7854V8.45288Z" fill="#2BC876" fill-opacity="0.4"/>
<path d="M197.204 8.45288H192.722V12.8902H197.204V8.45288Z" fill="#2BC876" fill-opacity="0.4"/>
<path d="M242.025 8.45288H237.543V12.8902H242.025V8.45288Z" fill="#2BC876" fill-opacity="0.4"/>
<path d="M237.543 8.45288H233.061V12.8902H237.543V8.45288Z" fill="#2BC876" fill-opacity="0.4"/>
<path d="M233.061 8.45288H228.579V12.8902H233.061V8.45288Z" fill="#2BC876" fill-opacity="0.4"/>
<path d="M228.579 8.45288H224.097V12.8902H228.579V8.45288Z" fill="#2BC876" fill-opacity="0.4"/>
<path d="M224.096 8.45288H219.614V12.8902H224.096V8.45288Z" fill="#2BC876" fill-opacity="0.4"/>
<path d="M219.614 8.45288H215.132V12.8902H219.614V8.45288Z" fill="#2BC876" fill-opacity="0.4"/>
<path d="M215.133 8.45288H210.65V12.8902H215.133V8.45288Z" fill="#2BC876" fill-opacity="0.4"/>
<path d="M210.65 8.45288H206.168V12.8902H210.65V8.45288Z" fill="#2BC876" fill-opacity="0.4"/>
<path d="M206.168 8.45288H201.686V12.8902H206.168V8.45288Z" fill="#2BC876" fill-opacity="0.4"/>
<path d="M201.686 8.45288H197.204V12.8902H201.686V8.45288Z" fill="#2BC876" fill-opacity="0.4"/>
<path d="M8.96407 17.3276H4.48193V21.765H8.96407V17.3276Z" fill="#2BC876" fill-opacity="0.4"/>
<path d="M13.446 12.8901H8.96387V17.3275H13.446V12.8901Z" fill="#2BC876" fill-opacity="0.4"/>
<path d="M17.9284 8.45288H13.4463V12.8902H17.9284V8.45288Z" fill="#2BC876" fill-opacity="0.4"/>
<path d="M22.4104 8.45288H17.9282V12.8902H22.4104V8.45288Z" fill="#2BC876" fill-opacity="0.4"/>
<path d="M26.8928 8.45288H22.4106V12.8902H26.8928V8.45288Z" fill="#2BC876" fill-opacity="0.4"/>
<path d="M31.3747 8.45288H26.8926V12.8902H31.3747V8.45288Z" fill="#2BC876" fill-opacity="0.4"/>
<path d="M35.8571 8.45288H31.375V12.8902H35.8571V8.45288Z" fill="#2BC876" fill-opacity="0.4"/>
<path d="M40.3391 8.45288H35.8569V12.8902H40.3391V8.45288Z" fill="#2BC876" fill-opacity="0.4"/>
<path d="M44.821 8.45288H40.3389V12.8902H44.821V8.45288Z" fill="#2BC876" fill-opacity="0.4"/>
<path d="M49.3034 8.45288H44.8213V12.8902H49.3034V8.45288Z" fill="#2BC876" fill-opacity="0.4"/>
<path d="M259.944 17.3276H255.461V21.765H259.944V17.3276Z" fill="#000600"/>
<path d="M259.944 21.7649H255.461V26.2022H259.944V21.7649Z" fill="#000600"/>
<path d="M259.944 26.2021H255.461V30.6395H259.944V26.2021Z" fill="#000600"/>
<path d="M259.944 30.6396H255.461V35.077H259.944V30.6396Z" fill="#000600"/>
<path d="M259.944 35.0769H255.461V39.5142H259.944V35.0769Z" fill="#000600"/>
<path d="M259.944 39.5142H255.461V43.9515H259.944V39.5142Z" fill="#000600"/>
<path d="M259.944 43.9517H255.461V48.389H259.944V43.9517Z" fill="#000600"/>
<path d="M259.944 48.3889H255.461V52.8262H259.944V48.3889Z" fill="#000600"/>
<path d="M259.944 52.8262H255.461V57.2635H259.944V52.8262Z" fill="#000600"/>
<path d="M259.944 57.2634H255.461V61.7007H259.944V57.2634Z" fill="#000600"/>
<path d="M188.24 114.938H183.758V119.376H188.24V114.938Z" fill="#000600"/>
<path d="M183.758 114.938H179.275V119.376H183.758V114.938Z" fill="#000600"/>
<path d="M179.276 114.938H174.793V119.376H179.276V114.938Z" fill="#000600"/>
<path d="M174.793 114.938H170.311V119.376H174.793V114.938Z" fill="#000600"/>
<path d="M170.311 114.938H165.829V119.376H170.311V114.938Z" fill="#000600"/>
<path d="M165.829 114.938H161.347V119.376H165.829V114.938Z" fill="#000600"/>
<path d="M161.347 114.938H156.865V119.376H161.347V114.938Z" fill="#000600"/>
<path d="M156.865 114.938H152.383V119.376H156.865V114.938Z" fill="#000600"/>
<path d="M152.383 114.938H147.9V119.376H152.383V114.938Z" fill="#000600"/>
<path d="M147.901 114.938H143.418V119.376H147.901V114.938Z" fill="#000600"/>
<path d="M143.419 114.938H138.937V119.376H143.419V114.938Z" fill="#000600"/>
<path d="M138.936 114.938H134.454V119.376H138.936V114.938Z" fill="#000600"/>
<path d="M134.454 114.938H129.972V119.376H134.454V114.938Z" fill="#000600"/>
<path d="M129.972 114.938H125.49V119.376H129.972V114.938Z" fill="#000600"/>
<path d="M125.49 114.938H121.008V119.376H125.49V114.938Z" fill="#000600"/>
<path d="M121.008 114.938H116.525V119.376H121.008V114.938Z" fill="#000600"/>
<path d="M116.526 114.938H112.043V119.376H116.526V114.938Z" fill="#000600"/>
<path d="M112.044 114.938H107.562V119.376H112.044V114.938Z" fill="#000600"/>
<path d="M107.561 114.938H103.079V119.376H107.561V114.938Z" fill="#000600"/>
<path d="M103.079 114.938H98.5972V119.376H103.079V114.938Z" fill="#000600"/>
<path d="M98.5969 114.938H94.1147V119.376H98.5969V114.938Z" fill="#000600"/>
<path d="M94.1149 114.938H89.6328V119.376H94.1149V114.938Z" fill="#000600"/>
<path d="M89.633 114.938H85.1509V119.376H89.633V114.938Z" fill="#000600"/>
<path d="M85.1609 114.938H80.6787V119.376H85.1609V114.938Z" fill="#000600"/>
<path d="M80.6784 114.938H76.1963V119.376H80.6784V114.938Z" fill="#000600"/>
<path d="M76.1965 114.938H71.7144V119.376H76.1965V114.938Z" fill="#000600"/>
<path d="M71.7146 114.938H67.2324V119.376H71.7146V114.938Z" fill="#000600"/>
<path d="M67.2321 114.938H62.75V119.376H67.2321V114.938Z" fill="#000600"/>
<path d="M62.7502 114.938H58.2681V119.376H62.7502V114.938Z" fill="#000600"/>
<path d="M58.2678 114.938H53.7856V119.376H58.2678V114.938Z" fill="#000600"/>
<path d="M53.7859 114.938H49.3037V119.376H53.7859V114.938Z" fill="#000600"/>
<path d="M49.3039 119.376H44.8218V123.813H49.3039V119.376Z" fill="#000600"/>
<path d="M44.8215 123.813H40.3394V128.25H44.8215V123.813Z" fill="#000600"/>
<path d="M40.3396 128.25H35.8574V132.688H40.3396V128.25Z" fill="#000600"/>
<path d="M35.8571 132.688H31.375V137.125H35.8571V132.688Z" fill="#000600"/>
<path d="M31.3752 137.125H26.8931V141.562H31.3752V137.125Z" fill="#000600"/>
<path d="M26.8928 141.562H22.4106V146H26.8928V141.562Z" fill="#000600"/>
<path d="M22.4109 137.125H17.9287V141.562H22.4109V137.125Z" fill="#000600"/>
<path d="M246.508 114.938H242.025V119.376H246.508V114.938Z" fill="#000600"/>
<path d="M250.989 110.501H246.507V114.939H250.989V110.501Z" fill="#000600"/>
<path d="M255.472 106.064H250.99V110.501H255.472V106.064Z" fill="#000600"/>
<path d="M259.944 101.627H255.461V106.064H259.944V101.627Z" fill="#000600"/>
<path d="M259.944 97.1895H255.461V101.627H259.944V97.1895Z" fill="#000600"/>
<path d="M259.944 92.752H255.461V97.1893H259.944V92.752Z" fill="#000600"/>
<path d="M259.944 88.3247H255.461V92.762H259.944V88.3247Z" fill="#000600"/>
<path d="M259.944 83.8875H255.461V88.3248H259.944V83.8875Z" fill="#000600"/>
<path d="M259.944 79.4502H255.461V83.8875H259.944V79.4502Z" fill="#000600"/>
<path d="M259.944 75.0127H255.461V79.45H259.944V75.0127Z" fill="#000600"/>
<path d="M259.944 70.5754H255.461V75.0128H259.944V70.5754Z" fill="#000600"/>
<path d="M259.944 66.1382H255.461V70.5755H259.944V66.1382Z" fill="#000600"/>
<path d="M259.944 61.7009H255.461V66.1382H259.944V61.7009Z" fill="#000600"/>
<path d="M192.722 114.938H188.24V119.376H192.722V114.938Z" fill="#000600"/>
<path d="M197.204 114.938H192.722V119.376H197.204V114.938Z" fill="#000600"/>
<path d="M242.026 114.938H237.543V119.376H242.026V114.938Z" fill="#000600"/>
<path d="M237.543 114.938H233.061V119.376H237.543V114.938Z" fill="#000600"/>
<path d="M233.061 114.938H228.579V119.376H233.061V114.938Z" fill="#000600"/>
<path d="M228.579 114.938H224.097V119.376H228.579V114.938Z" fill="#000600"/>
<path d="M224.097 114.938H219.615V119.376H224.097V114.938Z" fill="#000600"/>
<path d="M219.615 114.938H215.133V119.376H219.615V114.938Z" fill="#000600"/>
<path d="M215.133 114.938H210.65V119.376H215.133V114.938Z" fill="#000600"/>
<path d="M210.651 114.938H206.168V119.376H210.651V114.938Z" fill="#000600"/>
<path d="M206.168 114.938H201.686V119.376H206.168V114.938Z" fill="#000600"/>
<path d="M201.686 114.938H197.204V119.376H201.686V114.938Z" fill="#000600"/>
<path d="M4.48214 17.3276H0V21.765H4.48214V17.3276Z" fill="#000600"/>
<path d="M246.508 4.01562H242.025V8.45295H246.508V4.01562Z" fill="#000600"/>
<path d="M250.989 8.45288H246.507V12.8902H250.989V8.45288Z" fill="#000600"/>
<path d="M255.471 12.8904H250.989V17.3277H255.471V12.8904Z" fill="#000600"/>
<path d="M192.721 4.01562H188.239V8.45295H192.721V4.01562Z" fill="#000600"/>
<path d="M188.239 4.01562H183.757V8.45295H188.239V4.01562Z" fill="#000600"/>
<path d="M183.757 4.01562H179.275V8.45295H183.757V4.01562Z" fill="#000600"/>
<path d="M179.275 4.01562H174.793V8.45295H179.275V4.01562Z" fill="#000600"/>
<path d="M174.793 4.01562H170.311V8.45295H174.793V4.01562Z" fill="#000600"/>
<path d="M170.311 4.01562H165.829V8.45295H170.311V4.01562Z" fill="#000600"/>
<path d="M165.829 4.01562H161.347V8.45295H165.829V4.01562Z" fill="#000600"/>
<path d="M161.346 4.01562H156.864V8.45295H161.346V4.01562Z" fill="#000600"/>
<path d="M156.864 4.01562H152.382V8.45295H156.864V4.01562Z" fill="#000600"/>
<path d="M152.383 4.01562H147.9V8.45295H152.383V4.01562Z" fill="#000600"/>
<path d="M147.9 4.01562H143.418V8.45295H147.9V4.01562Z" fill="#000600"/>
<path d="M143.418 4.01562H138.936V8.45295H143.418V4.01562Z" fill="#000600"/>
<path d="M138.936 4.01562H134.454V8.45295H138.936V4.01562Z" fill="#000600"/>
<path d="M134.454 4.01562H129.972V8.45295H134.454V4.01562Z" fill="#000600"/>
<path d="M129.971 4.01562H125.489V8.45295H129.971V4.01562Z" fill="#000600"/>
<path d="M125.489 4.01562H121.007V8.45295H125.489V4.01562Z" fill="#000600"/>
<path d="M121.008 4.01562H116.525V8.45295H121.008V4.01562Z" fill="#000600"/>
<path d="M116.525 4.01562H112.043V8.45295H116.525V4.01562Z" fill="#000600"/>
<path d="M112.043 4.01562H107.561V8.45295H112.043V4.01562Z" fill="#000600"/>
<path d="M107.561 4.01562H103.079V8.45295H107.561V4.01562Z" fill="#000600"/>
<path d="M103.079 4.01562H98.5967V8.45295H103.079V4.01562Z" fill="#000600"/>
<path d="M98.5964 4.01562H94.1143V8.45295H98.5964V4.01562Z" fill="#000600"/>
<path d="M94.1145 4.01562H89.6323V8.45295H94.1145V4.01562Z" fill="#000600"/>
<path d="M89.6325 4.01562H85.1504V8.45295H89.6325V4.01562Z" fill="#000600"/>
<path d="M85.1604 4.01562H80.6782V8.45295H85.1604V4.01562Z" fill="#000600"/>
<path d="M80.6784 4.01562H76.1963V8.45295H80.6784V4.01562Z" fill="#000600"/>
<path d="M76.196 4.01562H71.7139V8.45295H76.196V4.01562Z" fill="#000600"/>
<path d="M71.7141 4.01562H67.2319V8.45295H71.7141V4.01562Z" fill="#000600"/>
<path d="M67.2317 4.01562H62.7495V8.45295H67.2317V4.01562Z" fill="#000600"/>
<path d="M62.7497 4.01562H58.2676V8.45295H62.7497V4.01562Z" fill="#000600"/>
<path d="M58.2673 4.01562H53.7852V8.45295H58.2673V4.01562Z" fill="#000600"/>
<path d="M53.7854 4.01562H49.3032V8.45295H53.7854V4.01562Z" fill="#000600"/>
<path d="M197.204 4.01562H192.722V8.45295H197.204V4.01562Z" fill="#000600"/>
<path d="M242.025 4.01562H237.543V8.45295H242.025V4.01562Z" fill="#000600"/>
<path d="M237.543 4.01562H233.061V8.45295H237.543V4.01562Z" fill="#000600"/>
<path d="M233.061 4.01562H228.579V8.45295H233.061V4.01562Z" fill="#000600"/>
<path d="M228.579 4.01562H224.097V8.45295H228.579V4.01562Z" fill="#000600"/>
<path d="M224.096 4.01562H219.614V8.45295H224.096V4.01562Z" fill="#000600"/>
<path d="M219.614 4.01562H215.132V8.45295H219.614V4.01562Z" fill="#000600"/>
<path d="M215.133 4.01562H210.65V8.45295H215.133V4.01562Z" fill="#000600"/>
<path d="M210.65 4.01562H206.168V8.45295H210.65V4.01562Z" fill="#000600"/>
<path d="M206.168 4.01562H201.686V8.45295H206.168V4.01562Z" fill="#000600"/>
<path d="M201.686 4.01562H197.204V8.45295H201.686V4.01562Z" fill="#000600"/>
<path d="M8.96407 12.8904H4.48193V17.3277H8.96407V12.8904Z" fill="#000600"/>
<path d="M13.446 8.45288H8.96387V12.8902H13.446V8.45288Z" fill="#000600"/>
<path d="M17.9284 4.01562H13.4463V8.45295H17.9284V4.01562Z" fill="#000600"/>
<path d="M22.4104 4.01562H17.9282V8.45295H22.4104V4.01562Z" fill="#000600"/>
<path d="M26.8928 4.01562H22.4106V8.45295H26.8928V4.01562Z" fill="#000600"/>
<path d="M31.3747 4.01562H26.8926V8.45295H31.3747V4.01562Z" fill="#000600"/>
<path d="M35.8571 4.01562H31.375V8.45295H35.8571V4.01562Z" fill="#000600"/>
<path d="M40.3391 4.01562H35.8569V8.45295H40.3391V4.01562Z" fill="#000600"/>
<path d="M44.821 4.01562H40.3389V8.45295H44.821V4.01562Z" fill="#000600"/>
<path d="M49.3034 4.01562H44.8213V8.45295H49.3034V4.01562Z" fill="#000600"/>
<path d="M17.9284 114.939H13.4463V119.376H17.9284V114.939Z" fill="#000600"/>
<path d="M13.4465 110.501H8.96436V114.939H13.4465V110.501Z" fill="#000600"/>
<path d="M8.96407 106.064H4.48193V110.502H8.96407V106.064Z" fill="#000600"/>
<path d="M4.48214 101.627H0V106.064H4.48214V101.627Z" fill="#000600"/>
<path d="M4.48214 97.1895H0V101.627H4.48214V97.1895Z" fill="#000600"/>
<path d="M4.48214 92.7522H0V97.1895H4.48214V92.7522Z" fill="#000600"/>
<path d="M4.48214 88.3149H0V92.7523H4.48214V88.3149Z" fill="#000600"/>
<path d="M4.48214 83.8875H0V88.3248H4.48214V83.8875Z" fill="#000600"/>
<path d="M4.48214 79.4502H0V83.8875H4.48214V79.4502Z" fill="#000600"/>
<path d="M4.48214 75.0129H0V79.4503H4.48214V75.0129Z" fill="#000600"/>
<path d="M4.48214 70.5757H0V75.013H4.48214V70.5757Z" fill="#000600"/>
<path d="M4.48214 66.1382H0V70.5755H4.48214V66.1382Z" fill="#000600"/>
<path d="M4.48214 61.7009H0V66.1382H4.48214V61.7009Z" fill="#000600"/>
<path d="M4.48214 21.7649H0V26.2022H4.48214V21.7649Z" fill="#000600"/>
<path d="M4.48214 26.2021H0V30.6395H4.48214V26.2021Z" fill="#000600"/>
<path d="M4.48214 30.6396H0V35.077H4.48214V30.6396Z" fill="#000600"/>
<path d="M4.48214 35.0769H0V39.5142H4.48214V35.0769Z" fill="#000600"/>
<path d="M4.48214 39.5142H0V43.9515H4.48214V39.5142Z" fill="#000600"/>
<path d="M4.48214 43.9514H0V48.3887H4.48214V43.9514Z" fill="#000600"/>
<path d="M4.48214 48.3889H0V52.8262H4.48214V48.3889Z" fill="#000600"/>
<path d="M4.48214 52.8262H0V57.2635H4.48214V52.8262Z" fill="#000600"/>
<path d="M4.48214 57.2634H0V61.7007H4.48214V57.2634Z" fill="#000600"/>
<path d="M22.4109 119.376H17.9287V123.813H22.4109V119.376Z" fill="#000600"/>
<path d="M22.4109 123.813H17.9287V128.251H22.4109V123.813Z" fill="#000600"/>
<path d="M22.4109 128.25H17.9287V132.688H22.4109V128.25Z" fill="#000600"/>
<path d="M22.4109 132.688H17.9287V137.125H22.4109V132.688Z" fill="#000600"/>
</g>
<defs>
<clipPath id="clip0_144_2297">
<rect width="264" height="146" fill="white"/>
</clipPath>
</defs>
</svg>
