<svg width="271" height="300" viewBox="0 0 271 300" fill="none" xmlns="http://www.w3.org/2000/svg">
<path d="M266.518 220.569V228.589H262.046V236.608H257.564V244.627H53.3602V252.646H48.878V260.666H44.3959V268.685H39.9137V276.704H35.4316V284.723H30.9495V292.743H26.4673V284.723H21.9852V244.627H17.5031V236.608H13.0209V228.589H8.53878V220.569H4.05664V24.0578H8.53878V16.0385H13.0209V8.01926H17.5031V0H257.564V8.01926H262.046V16.0385H266.518V24.0578H271V220.569H266.518Z" fill="#2BC876"/>
<path d="M22.411 291.98L17.9288 251.884L4.48242 227.826V31.3149L13.4467 15.2764H253.508L262.462 31.3149V227.826L253.508 243.865H53.786L26.8931 291.98H22.411Z" fill="white"/>
<path d="M253.508 15.2764H242.025V23.2956H253.508L253.508 15.2764Z" fill="#2BC876" fill-opacity="0.4"/>
<path d="M257.99 23.2956H253.508L253.508 31.3149H257.99V23.2956Z" fill="#2BC876" fill-opacity="0.4"/>
<path d="M262.472 31.3151L257.99 31.3149L257.99 39.3343H262.472V31.3151Z" fill="#2BC876" fill-opacity="0.4"/>
<path d="M192.722 15.2764H188.24V23.2956H192.722V15.2764Z" fill="#2BC876" fill-opacity="0.4"/>
<path d="M188.24 15.2764L183.758 15.2764V23.2956H188.24V15.2764Z" fill="#2BC876" fill-opacity="0.4"/>
<path d="M183.758 15.2764H179.276V23.2956H183.758V15.2764Z" fill="#2BC876" fill-opacity="0.4"/>
<path d="M179.276 15.2764H174.794V23.2956H179.276V15.2764Z" fill="#2BC876" fill-opacity="0.4"/>
<path d="M174.794 15.2764H170.311V23.2956H174.794V15.2764Z" fill="#2BC876" fill-opacity="0.4"/>
<path d="M170.311 15.2764H165.829V23.2956H170.311V15.2764Z" fill="#2BC876" fill-opacity="0.4"/>
<path d="M165.829 15.2764H161.347V23.2956H165.829V15.2764Z" fill="#2BC876" fill-opacity="0.4"/>
<path d="M161.347 15.2764H156.865V23.2956H161.347V15.2764Z" fill="#2BC876" fill-opacity="0.4"/>
<path d="M156.865 15.2764H152.383V23.2956H156.865V15.2764Z" fill="#2BC876" fill-opacity="0.4"/>
<path d="M152.383 15.2764H147.9V23.2956H152.383V15.2764Z" fill="#2BC876" fill-opacity="0.4"/>
<path d="M147.9 15.2764H143.419V23.2956H147.9V15.2764Z" fill="#2BC876" fill-opacity="0.4"/>
<path d="M143.419 15.2764H138.936V23.2956H143.419V15.2764Z" fill="#2BC876" fill-opacity="0.4"/>
<path d="M138.936 15.2764H134.454V23.2956H138.936V15.2764Z" fill="#2BC876" fill-opacity="0.4"/>
<path d="M134.454 15.2764H129.972V23.2956H134.454V15.2764Z" fill="#2BC876" fill-opacity="0.4"/>
<path d="M129.972 15.2764H125.49V23.2956H129.972V15.2764Z" fill="#2BC876" fill-opacity="0.4"/>
<path d="M125.49 15.2764H121.008V23.2956H125.49V15.2764Z" fill="#2BC876" fill-opacity="0.4"/>
<path d="M121.008 15.2764H116.525V23.2956H121.008V15.2764Z" fill="#2BC876" fill-opacity="0.4"/>
<path d="M116.525 15.2764H112.044V23.2956H116.525V15.2764Z" fill="#2BC876" fill-opacity="0.4"/>
<path d="M112.044 15.2764H107.561V23.2956H112.044V15.2764Z" fill="#2BC876" fill-opacity="0.4"/>
<path d="M107.561 15.2764H103.079V23.2956H107.561V15.2764Z" fill="#2BC876" fill-opacity="0.4"/>
<path d="M103.079 15.2764H98.5968V23.2956H103.079V15.2764Z" fill="#2BC876" fill-opacity="0.4"/>
<path d="M98.5968 15.2764H94.1153V23.2956H98.5968V15.2764Z" fill="#2BC876" fill-opacity="0.4"/>
<path d="M94.1153 15.2764H89.6329V23.2956H94.1153V15.2764Z" fill="#2BC876" fill-opacity="0.4"/>
<path d="M89.6329 15.2764H85.1505V23.2956H89.6329V15.2764Z" fill="#2BC876" fill-opacity="0.4"/>
<path d="M85.1609 15.2764H80.6788V23.2956H85.1609V15.2764Z" fill="#2BC876" fill-opacity="0.4"/>
<path d="M80.6788 15.2764H76.1964V23.2956H80.6788V15.2764Z" fill="#2BC876" fill-opacity="0.4"/>
<path d="M76.1964 15.2764H71.7149V23.2956H76.1964V15.2764Z" fill="#2BC876" fill-opacity="0.4"/>
<path d="M71.7149 15.2764H67.2324V23.2956H71.7149V15.2764Z" fill="#2BC876" fill-opacity="0.4"/>
<path d="M67.2324 15.2764H62.7502V23.2956H67.2324V15.2764Z" fill="#2BC876" fill-opacity="0.4"/>
<path d="M62.7502 15.2764H58.2677V23.2956H62.7502V15.2764Z" fill="#2BC876" fill-opacity="0.4"/>
<path d="M58.2677 15.2764H53.7862V23.2956H58.2677V15.2764Z" fill="#2BC876" fill-opacity="0.4"/>
<path d="M53.7862 15.2764H49.3038V23.2956H53.7862V15.2764Z" fill="#2BC876" fill-opacity="0.4"/>
<path d="M197.204 15.2764H192.722V23.2956H197.204V15.2764Z" fill="#2BC876" fill-opacity="0.4"/>
<path d="M242.025 15.2764H237.544V23.2956H242.025V15.2764Z" fill="#2BC876" fill-opacity="0.4"/>
<path d="M237.544 15.2764L233.061 15.2764V23.2956H237.544V15.2764Z" fill="#2BC876" fill-opacity="0.4"/>
<path d="M233.061 15.2764H228.579V23.2956H233.061V15.2764Z" fill="#2BC876" fill-opacity="0.4"/>
<path d="M228.579 15.2764L224.097 15.2764V23.2956H228.579V15.2764Z" fill="#2BC876" fill-opacity="0.4"/>
<path d="M224.097 15.2764H219.615V23.2956H224.097V15.2764Z" fill="#2BC876" fill-opacity="0.4"/>
<path d="M219.615 15.2764L215.133 15.2764V23.2956H219.615V15.2764Z" fill="#2BC876" fill-opacity="0.4"/>
<path d="M215.133 15.2764L210.65 15.2764V23.2956H215.133V15.2764Z" fill="#2BC876" fill-opacity="0.4"/>
<path d="M210.65 15.2764H206.169V23.2956H210.65V15.2764Z" fill="#2BC876" fill-opacity="0.4"/>
<path d="M206.169 15.2764L201.686 15.2764V23.2956H206.169V15.2764Z" fill="#2BC876" fill-opacity="0.4"/>
<path d="M201.686 15.2764L197.204 15.2764V23.2956H201.686V15.2764Z" fill="#2BC876" fill-opacity="0.4"/>
<path d="M8.96456 31.3149H4.48242V39.3341H8.96456V31.3149Z" fill="#2BC876" fill-opacity="0.4"/>
<path d="M13.447 23.2955H8.96484L8.96456 31.3149L13.447 31.3148V23.2955Z" fill="#2BC876" fill-opacity="0.4"/>
<path d="M17.9284 15.2764H13.4467L13.447 23.2955L17.9284 23.2956V15.2764Z" fill="#2BC876" fill-opacity="0.4"/>
<path d="M22.411 15.2764L17.9284 15.2764V23.2956H22.411V15.2764Z" fill="#2BC876" fill-opacity="0.4"/>
<path d="M26.8931 15.2764H22.411V23.2956H26.8931V15.2764Z" fill="#2BC876" fill-opacity="0.4"/>
<path d="M31.3757 15.2764L26.8931 15.2764V23.2956H31.3757V15.2764Z" fill="#2BC876" fill-opacity="0.4"/>
<path d="M35.8571 15.2764H31.3757V23.2956H35.8571V15.2764Z" fill="#2BC876" fill-opacity="0.4"/>
<path d="M40.3395 15.2764L35.8571 15.2764V23.2956H40.3395V15.2764Z" fill="#2BC876" fill-opacity="0.4"/>
<path d="M44.822 15.2764L40.3395 15.2764V23.2956H44.822V15.2764Z" fill="#2BC876" fill-opacity="0.4"/>
<path d="M49.3038 15.2764L44.822 15.2764V23.2956H49.3038V15.2764Z" fill="#2BC876" fill-opacity="0.4"/>
<path d="M266.944 31.3151L262.462 31.3149V39.3343H266.944V31.3151Z" fill="#09140E"/>
<path d="M266.944 39.3343H262.462V83.498H266.944V39.3343Z" fill="#09140E"/>
<path d="M266.944 83.498H262.462V91.5172H266.944V83.498Z" fill="#09140E"/>
<path d="M266.944 91.5172H262.462V99.5367H266.944V91.5172Z" fill="#09140E"/>
<path d="M266.944 99.5367H262.462V107.556H266.944V99.5367Z" fill="#09140E"/>
<path d="M266.944 107.556H262.462V115.575H266.944V107.556Z" fill="#09140E"/>
<path d="M266.944 115.575H262.462V123.595H266.944V115.575Z" fill="#09140E"/>
<path d="M266.944 123.595H262.462V131.614H266.944V123.595Z" fill="#09140E"/>
<path d="M266.944 131.614H262.462V139.633H266.944V131.614Z" fill="#09140E"/>
<path d="M266.944 139.633H262.462V147.652H266.944V139.633Z" fill="#09140E"/>
<path d="M188.24 243.865H183.758V251.884H188.24V243.865Z" fill="#09140E"/>
<path d="M183.758 243.865H179.275V251.884H183.758V243.865Z" fill="#09140E"/>
<path d="M179.275 243.865H174.793V251.884H179.275V243.865Z" fill="#09140E"/>
<path d="M174.793 243.865H170.311V251.884H174.793V243.865Z" fill="#09140E"/>
<path d="M170.311 243.865H165.829V251.884H170.311V243.865Z" fill="#09140E"/>
<path d="M165.829 243.865H161.347V251.884H165.829V243.865Z" fill="#09140E"/>
<path d="M161.347 243.865H156.865V251.884H161.347V243.865Z" fill="#09140E"/>
<path d="M156.865 243.865H152.383V251.884H156.865V243.865Z" fill="#09140E"/>
<path d="M152.383 243.865H147.9V251.884H152.383V243.865Z" fill="#09140E"/>
<path d="M147.9 243.865H143.418V251.884H147.9V243.865Z" fill="#09140E"/>
<path d="M143.418 243.865H138.936V251.884H143.418V243.865Z" fill="#09140E"/>
<path d="M138.936 243.865H134.454V251.884H138.936V243.865Z" fill="#09140E"/>
<path d="M134.454 243.865H129.972V251.884H134.454V243.865Z" fill="#09140E"/>
<path d="M129.972 243.865H125.49V251.884H129.972V243.865Z" fill="#09140E"/>
<path d="M125.49 243.865H121.008V251.884H125.49V243.865Z" fill="#09140E"/>
<path d="M121.008 243.865H116.525V251.884H121.008V243.865Z" fill="#09140E"/>
<path d="M116.525 243.865H112.044V251.884H116.525V243.865Z" fill="#09140E"/>
<path d="M112.044 243.865H107.561V251.884H112.044V243.865Z" fill="#09140E"/>
<path d="M107.561 243.865H103.079V251.884H107.561V243.865Z" fill="#09140E"/>
<path d="M103.079 243.865H98.5965V251.884H103.079V243.865Z" fill="#09140E"/>
<path d="M98.5965 243.865H94.1151V251.884H98.5965V243.865Z" fill="#09140E"/>
<path d="M94.1151 243.865H89.6326V251.884H94.1151V243.865Z" fill="#09140E"/>
<path d="M89.6326 243.865H85.1502V251.884H89.6326V243.865Z" fill="#09140E"/>
<path d="M85.1606 243.865H80.6785V251.884H85.1606V243.865Z" fill="#09140E"/>
<path d="M80.6785 243.865H76.1964V251.884H80.6785V243.865Z" fill="#09140E"/>
<path d="M76.1964 243.865H71.7147V251.884H76.1964V243.865Z" fill="#09140E"/>
<path d="M71.7147 243.865H67.2321V251.884H71.7147V243.865Z" fill="#09140E"/>
<path d="M67.2321 243.865H62.7499V251.884H67.2321V243.865Z" fill="#09140E"/>
<path d="M62.7499 243.865H58.2674V251.884H62.7499V243.865Z" fill="#09140E"/>
<path d="M58.2674 243.865L53.786 243.865L53.786 251.884H58.2674V243.865Z" fill="#09140E"/>
<path d="M53.786 243.865L49.3035 243.865V251.884H53.786L53.786 243.865Z" fill="#09140E"/>
<path d="M49.3035 251.884L44.8211 251.885V259.904H49.3033L49.3035 251.884Z" fill="#09140E"/>
<path d="M44.8211 259.904L40.3397 259.903V267.923H44.8218L44.8211 259.904Z" fill="#09140E"/>
<path d="M40.3397 267.923L35.8571 267.923V275.942H40.3392L40.3397 267.923Z" fill="#09140E"/>
<path d="M35.8571 275.942H31.375V283.961H35.8571L35.8571 275.942Z" fill="#09140E"/>
<path d="M31.375 283.961L26.8924 283.961L26.8931 291.98L31.3746 291.98L31.375 283.961Z" fill="#09140E"/>
<path d="M26.8931 291.98H22.411V300H26.8931V291.98Z" fill="#09140E"/>
<path d="M22.4107 283.961H17.9286V291.981L22.411 291.98L22.4107 283.961Z" fill="#09140E"/>
<path d="M253.508 243.865L242.025 243.865V251.884H253.507L253.508 243.865Z" fill="#09140E"/>
<path d="M257.99 235.846H253.508L253.508 243.865L257.99 243.865V235.846Z" fill="#09140E"/>
<path d="M262.471 227.826H257.989L257.99 235.846L262.471 235.846V227.826Z" fill="#09140E"/>
<path d="M266.944 219.807H262.462V227.826L266.944 227.827V219.807Z" fill="#09140E"/>
<path d="M266.944 211.788H262.462V219.807H266.944V211.788Z" fill="#09140E"/>
<path d="M266.944 203.769H262.462V211.788H266.944V203.769Z" fill="#09140E"/>
<path d="M266.944 195.768H262.462V203.787H266.944V195.768Z" fill="#09140E"/>
<path d="M266.944 187.748H262.462V195.768H266.944V187.748Z" fill="#09140E"/>
<path d="M266.944 179.729H262.462V187.748H266.944V179.729Z" fill="#09140E"/>
<path d="M266.944 171.71H262.462V179.729H266.944V171.71Z" fill="#09140E"/>
<path d="M266.944 163.691H262.462V171.71H266.944V163.691Z" fill="#09140E"/>
<path d="M266.944 155.671H262.462V163.691H266.944V155.671Z" fill="#09140E"/>
<path d="M266.944 147.652H262.462V155.671H266.944V147.652Z" fill="#09140E"/>
<path d="M192.721 243.865L188.24 243.865V251.884L192.721 251.884V243.865Z" fill="#09140E"/>
<path d="M197.204 243.865L192.721 243.865V251.884L197.204 251.884V243.865Z" fill="#09140E"/>
<path d="M242.025 243.865H237.543V251.884H242.025V243.865Z" fill="#09140E"/>
<path d="M237.543 243.865H233.061V251.884H237.543V243.865Z" fill="#09140E"/>
<path d="M233.061 243.865H228.579V251.884H233.061V243.865Z" fill="#09140E"/>
<path d="M228.579 243.865H224.097V251.884H228.579V243.865Z" fill="#09140E"/>
<path d="M224.097 243.865H219.615V251.884H224.097V243.865Z" fill="#09140E"/>
<path d="M219.615 243.865H215.133V251.884H219.615V243.865Z" fill="#09140E"/>
<path d="M215.133 243.865H210.65V251.884H215.133V243.865Z" fill="#09140E"/>
<path d="M210.65 243.865H206.168V251.884H210.65V243.865Z" fill="#09140E"/>
<path d="M206.168 243.865H201.686V251.884H206.168V243.865Z" fill="#09140E"/>
<path d="M201.686 243.865H197.204V251.884H201.686V243.865Z" fill="#09140E"/>
<path d="M4.48242 31.3149L0 31.315V39.3343L4.48242 39.3341V31.3149Z" fill="#09140E"/>
<path d="M253.508 7.25725H242.025V15.2764H253.508L253.508 7.25725Z" fill="#09140E"/>
<path d="M257.99 15.2765L253.508 15.2764L253.508 23.2956H257.99V15.2765Z" fill="#09140E"/>
<path d="M262.472 23.296L257.99 23.2956V31.3149L262.472 31.3151V23.296Z" fill="#09140E"/>
<path d="M192.722 7.25725H188.24V15.2764H192.722V7.25725Z" fill="#09140E"/>
<path d="M188.24 7.25725H183.758V15.2764L188.24 15.2764V7.25725Z" fill="#09140E"/>
<path d="M183.758 7.25725H179.276V15.2764H183.758V7.25725Z" fill="#09140E"/>
<path d="M179.276 7.25725H174.794V15.2764H179.276V7.25725Z" fill="#09140E"/>
<path d="M174.794 7.25725H170.311V15.2764H174.794V7.25725Z" fill="#09140E"/>
<path d="M170.311 7.25725H165.829V15.2764H170.311V7.25725Z" fill="#09140E"/>
<path d="M165.829 7.25725H161.347V15.2764H165.829V7.25725Z" fill="#09140E"/>
<path d="M161.347 7.25725H156.865V15.2764H161.347V7.25725Z" fill="#09140E"/>
<path d="M156.865 7.25725H152.383V15.2764H156.865V7.25725Z" fill="#09140E"/>
<path d="M152.383 7.25725H147.9V15.2764H152.383V7.25725Z" fill="#09140E"/>
<path d="M147.9 7.25725H143.419V15.2764H147.9V7.25725Z" fill="#09140E"/>
<path d="M143.419 7.25725H138.936V15.2764H143.419V7.25725Z" fill="#09140E"/>
<path d="M138.936 7.25725H134.454V15.2764H138.936V7.25725Z" fill="#09140E"/>
<path d="M134.454 7.25725H129.972V15.2764H134.454V7.25725Z" fill="#09140E"/>
<path d="M129.972 7.25725H125.49V15.2764H129.972V7.25725Z" fill="#09140E"/>
<path d="M125.49 7.25725H121.008V15.2764H125.49V7.25725Z" fill="#09140E"/>
<path d="M121.008 7.25725H116.525V15.2764H121.008V7.25725Z" fill="#09140E"/>
<path d="M116.525 7.25725H112.044V15.2764H116.525V7.25725Z" fill="#09140E"/>
<path d="M112.044 7.25725H107.561V15.2764H112.044V7.25725Z" fill="#09140E"/>
<path d="M107.561 7.25725H103.079V15.2764H107.561V7.25725Z" fill="#09140E"/>
<path d="M103.079 7.25725H98.5968V15.2764H103.079V7.25725Z" fill="#09140E"/>
<path d="M98.5968 7.25725H94.1153V15.2764H98.5968V7.25725Z" fill="#09140E"/>
<path d="M94.1153 7.25725H89.6329V15.2764H94.1153V7.25725Z" fill="#09140E"/>
<path d="M89.6329 7.25725H85.1505V15.2764H89.6329V7.25725Z" fill="#09140E"/>
<path d="M85.1609 7.25725H80.6788V15.2764H85.1609V7.25725Z" fill="#09140E"/>
<path d="M80.6788 7.25725H76.1964V15.2764H80.6788V7.25725Z" fill="#09140E"/>
<path d="M76.1964 7.25725H71.7149V15.2764H76.1964V7.25725Z" fill="#09140E"/>
<path d="M71.7149 7.25725H67.2324V15.2764H71.7149V7.25725Z" fill="#09140E"/>
<path d="M67.2324 7.25725H62.7502V15.2764H67.2324V7.25725Z" fill="#09140E"/>
<path d="M62.7502 7.25725H58.2677V15.2764H62.7502V7.25725Z" fill="#09140E"/>
<path d="M58.2677 7.25725H53.7862V15.2764H58.2677V7.25725Z" fill="#09140E"/>
<path d="M53.7862 7.25725H49.3038V15.2764H53.7862V7.25725Z" fill="#09140E"/>
<path d="M197.204 7.25725H192.722V15.2764H197.204V7.25725Z" fill="#09140E"/>
<path d="M242.025 7.25725H237.544V15.2764H242.025V7.25725Z" fill="#09140E"/>
<path d="M237.544 7.25725H233.061V15.2764L237.544 15.2764V7.25725Z" fill="#09140E"/>
<path d="M233.061 7.25725H228.579V15.2764H233.061V7.25725Z" fill="#09140E"/>
<path d="M228.579 7.25725H224.097V15.2764L228.579 15.2764V7.25725Z" fill="#09140E"/>
<path d="M224.097 7.25725H219.615V15.2764H224.097V7.25725Z" fill="#09140E"/>
<path d="M219.615 7.25725H215.133V15.2764L219.615 15.2764V7.25725Z" fill="#09140E"/>
<path d="M215.133 7.25725H210.65V15.2764L215.133 15.2764V7.25725Z" fill="#09140E"/>
<path d="M210.65 7.25725H206.169V15.2764H210.65V7.25725Z" fill="#09140E"/>
<path d="M206.169 7.25725H201.686V15.2764L206.169 15.2764V7.25725Z" fill="#09140E"/>
<path d="M201.686 7.25725H197.204V15.2764L201.686 15.2764V7.25725Z" fill="#09140E"/>
<path d="M8.96484 23.2955L4.48242 23.2958V31.3149H8.96456L8.96484 23.2955Z" fill="#09140E"/>
<path d="M13.4467 15.2764H8.96484V23.2955H13.447L13.4467 15.2764Z" fill="#09140E"/>
<path d="M17.9284 7.25725H13.4463L13.4467 15.2764H17.9284V7.25725Z" fill="#09140E"/>
<path d="M22.411 7.25725H17.9284V15.2764L22.411 15.2764V7.25725Z" fill="#09140E"/>
<path d="M26.8931 7.25725H22.411V15.2764H26.8931V7.25725Z" fill="#09140E"/>
<path d="M31.3757 7.25725H26.8931V15.2764L31.3757 15.2764V7.25725Z" fill="#09140E"/>
<path d="M35.8571 7.25725H31.3757V15.2764H35.8571V7.25725Z" fill="#09140E"/>
<path d="M40.3395 7.25725H35.8571V15.2764L40.3395 15.2764V7.25725Z" fill="#09140E"/>
<path d="M44.822 7.25725H40.3395V15.2764L44.822 15.2764V7.25725Z" fill="#09140E"/>
<path d="M49.3038 7.25725H44.822V15.2764L49.3038 15.2764V7.25725Z" fill="#09140E"/>
<path d="M17.9286 243.865H13.4464V251.884L17.9288 251.884L17.9286 243.865Z" fill="#09140E"/>
<path d="M13.446 235.846H8.96387V243.865L13.4464 243.865L13.446 235.846Z" fill="#09140E"/>
<path d="M8.96456 227.827L4.48242 227.826V235.846L8.96387 235.846L8.96456 227.827Z" fill="#09140E"/>
<path d="M4.48214 219.807H0V227.827L4.48242 227.826L4.48214 219.807Z" fill="#09140E"/>
<path d="M4.48214 211.788H0V219.807H4.48214V211.788Z" fill="#09140E"/>
<path d="M4.48214 203.769H0V211.788H4.48214V203.769Z" fill="#09140E"/>
<path d="M4.48214 195.75H0V203.769H4.48214V195.75Z" fill="#09140E"/>
<path d="M4.48214 187.748H0V195.768H4.48214V187.748Z" fill="#09140E"/>
<path d="M4.48214 179.729H0V187.748H4.48214V179.729Z" fill="#09140E"/>
<path d="M4.48214 171.71H0V179.729H4.48214V171.71Z" fill="#09140E"/>
<path d="M4.48214 163.691H0V171.71H4.48214V163.691Z" fill="#09140E"/>
<path d="M4.48214 155.671H0V163.691H4.48214V155.671Z" fill="#09140E"/>
<path d="M4.48214 147.652H0V155.671H4.48214V147.652Z" fill="#09140E"/>
<path d="M4.48242 39.3341L0 39.3343V83.4981H4.48214L4.48242 39.3341Z" fill="#09140E"/>
<path d="M4.48214 83.4981H0V91.5173H4.48214V83.4981Z" fill="#09140E"/>
<path d="M4.48214 91.5173H0V99.5366H4.48214V91.5173Z" fill="#09140E"/>
<path d="M4.48214 99.5366H0V107.556H4.48214V99.5366Z" fill="#09140E"/>
<path d="M4.48214 107.556H0V115.575H4.48214V107.556Z" fill="#09140E"/>
<path d="M4.48214 115.575H0V123.594H4.48214V115.575Z" fill="#09140E"/>
<path d="M4.48214 123.594H0V131.614H4.48214V123.594Z" fill="#09140E"/>
<path d="M4.48214 131.614H0V139.633H4.48214V131.614Z" fill="#09140E"/>
<path d="M4.48214 139.633H0V147.652H4.48214V139.633Z" fill="#09140E"/>
<path d="M22.4107 251.884L17.9288 251.884L17.9286 259.904H22.4107V251.884Z" fill="#09140E"/>
<path d="M22.4107 259.904H17.9286V267.923H22.4107L22.4107 259.904Z" fill="#09140E"/>
<path d="M22.4107 267.923H17.9286V275.942H22.4107V267.923Z" fill="#09140E"/>
<path d="M22.4107 275.942H17.9286V283.961H22.4107V275.942Z" fill="#09140E"/>
</svg>
