<svg width="271" height="166" viewBox="0 0 271 166" fill="none" xmlns="http://www.w3.org/2000/svg">
<path d="M266.518 122.048V126.486H262.046V130.923H257.564V135.36H53.3602V139.798H48.878V144.235H44.3959V148.672H39.9137V153.11H35.4316V157.547H30.9495V161.984H26.4673V157.547H21.9852V135.36H17.5031V130.923H13.0209V126.486H8.53878V122.048H4.05664V13.312H8.53878V8.87465H13.0209V4.43732H17.5031V0H257.564V4.43732H262.046V8.87465H266.518V13.312H271V122.048H266.518Z" fill="#2BC876"/>
<path d="M22.411 161.563L17.9288 139.376L4.48242 126.064V17.3276L13.4467 8.45293H253.508L262.462 17.3276V126.064L253.508 134.939H53.786L26.8931 161.563H22.411Z" fill="white"/>
<path d="M253.508 8.45293H242.025V12.8903H253.508L253.508 8.45293Z" fill="#2BC876" fill-opacity="0.4"/>
<path d="M257.99 12.8903H253.508L253.508 17.3276H257.99V12.8903Z" fill="#2BC876" fill-opacity="0.4"/>
<path d="M262.472 17.3277L257.99 17.3276L257.99 21.765H262.472V17.3277Z" fill="#2BC876" fill-opacity="0.4"/>
<path d="M192.722 8.45293H188.24V12.8903H192.722V8.45293Z" fill="#2BC876" fill-opacity="0.4"/>
<path d="M188.24 8.45293L183.758 8.45293V12.8903H188.24V8.45293Z" fill="#2BC876" fill-opacity="0.4"/>
<path d="M183.758 8.45293H179.276V12.8903H183.758V8.45293Z" fill="#2BC876" fill-opacity="0.4"/>
<path d="M179.276 8.45293H174.794V12.8903H179.276V8.45293Z" fill="#2BC876" fill-opacity="0.4"/>
<path d="M174.794 8.45293H170.311V12.8903H174.794V8.45293Z" fill="#2BC876" fill-opacity="0.4"/>
<path d="M170.311 8.45293H165.829V12.8903H170.311V8.45293Z" fill="#2BC876" fill-opacity="0.4"/>
<path d="M165.829 8.45293H161.347V12.8903H165.829V8.45293Z" fill="#2BC876" fill-opacity="0.4"/>
<path d="M161.347 8.45293H156.865V12.8903H161.347V8.45293Z" fill="#2BC876" fill-opacity="0.4"/>
<path d="M156.865 8.45293H152.383V12.8903H156.865V8.45293Z" fill="#2BC876" fill-opacity="0.4"/>
<path d="M152.383 8.45293H147.9V12.8903H152.383V8.45293Z" fill="#2BC876" fill-opacity="0.4"/>
<path d="M147.9 8.45293H143.419V12.8903H147.9V8.45293Z" fill="#2BC876" fill-opacity="0.4"/>
<path d="M143.419 8.45293H138.936V12.8903H143.419V8.45293Z" fill="#2BC876" fill-opacity="0.4"/>
<path d="M138.936 8.45293H134.454V12.8903H138.936V8.45293Z" fill="#2BC876" fill-opacity="0.4"/>
<path d="M134.454 8.45293H129.972V12.8903H134.454V8.45293Z" fill="#2BC876" fill-opacity="0.4"/>
<path d="M129.972 8.45293H125.49V12.8903H129.972V8.45293Z" fill="#2BC876" fill-opacity="0.4"/>
<path d="M125.49 8.45293H121.008V12.8903H125.49V8.45293Z" fill="#2BC876" fill-opacity="0.4"/>
<path d="M121.008 8.45293H116.525V12.8903H121.008V8.45293Z" fill="#2BC876" fill-opacity="0.4"/>
<path d="M116.525 8.45293H112.044V12.8903H116.525V8.45293Z" fill="#2BC876" fill-opacity="0.4"/>
<path d="M112.044 8.45293H107.561V12.8903H112.044V8.45293Z" fill="#2BC876" fill-opacity="0.4"/>
<path d="M107.561 8.45293H103.079V12.8903H107.561V8.45293Z" fill="#2BC876" fill-opacity="0.4"/>
<path d="M103.079 8.45293H98.5968V12.8903H103.079V8.45293Z" fill="#2BC876" fill-opacity="0.4"/>
<path d="M98.5968 8.45293H94.1153V12.8903H98.5968V8.45293Z" fill="#2BC876" fill-opacity="0.4"/>
<path d="M94.1153 8.45293H89.6329V12.8903H94.1153V8.45293Z" fill="#2BC876" fill-opacity="0.4"/>
<path d="M89.6329 8.45293H85.1505V12.8903H89.6329V8.45293Z" fill="#2BC876" fill-opacity="0.4"/>
<path d="M85.1609 8.45293H80.6788V12.8903H85.1609V8.45293Z" fill="#2BC876" fill-opacity="0.4"/>
<path d="M80.6788 8.45293H76.1964V12.8903H80.6788V8.45293Z" fill="#2BC876" fill-opacity="0.4"/>
<path d="M76.1964 8.45293H71.7149V12.8903H76.1964V8.45293Z" fill="#2BC876" fill-opacity="0.4"/>
<path d="M71.7149 8.45293H67.2324V12.8903H71.7149V8.45293Z" fill="#2BC876" fill-opacity="0.4"/>
<path d="M67.2324 8.45293H62.7502V12.8903H67.2324V8.45293Z" fill="#2BC876" fill-opacity="0.4"/>
<path d="M62.7502 8.45293H58.2677V12.8903H62.7502V8.45293Z" fill="#2BC876" fill-opacity="0.4"/>
<path d="M58.2677 8.45293H53.7862V12.8903H58.2677V8.45293Z" fill="#2BC876" fill-opacity="0.4"/>
<path d="M53.7862 8.45293H49.3038V12.8903H53.7862V8.45293Z" fill="#2BC876" fill-opacity="0.4"/>
<path d="M197.204 8.45293H192.722V12.8903H197.204V8.45293Z" fill="#2BC876" fill-opacity="0.4"/>
<path d="M242.025 8.45293H237.544V12.8903H242.025V8.45293Z" fill="#2BC876" fill-opacity="0.4"/>
<path d="M237.544 8.45293L233.061 8.45293V12.8903H237.544V8.45293Z" fill="#2BC876" fill-opacity="0.4"/>
<path d="M233.061 8.45293H228.579V12.8903H233.061V8.45293Z" fill="#2BC876" fill-opacity="0.4"/>
<path d="M228.579 8.45293L224.097 8.45293V12.8903H228.579V8.45293Z" fill="#2BC876" fill-opacity="0.4"/>
<path d="M224.097 8.45293H219.615V12.8903H224.097V8.45293Z" fill="#2BC876" fill-opacity="0.4"/>
<path d="M219.615 8.45293L215.133 8.45293V12.8903H219.615V8.45293Z" fill="#2BC876" fill-opacity="0.4"/>
<path d="M215.133 8.45293L210.65 8.45293V12.8903H215.133V8.45293Z" fill="#2BC876" fill-opacity="0.4"/>
<path d="M210.65 8.45293H206.169V12.8903H210.65V8.45293Z" fill="#2BC876" fill-opacity="0.4"/>
<path d="M206.169 8.45293L201.686 8.45293V12.8903H206.169V8.45293Z" fill="#2BC876" fill-opacity="0.4"/>
<path d="M201.686 8.45293L197.204 8.45293V12.8903H201.686V8.45293Z" fill="#2BC876" fill-opacity="0.4"/>
<path d="M8.96456 17.3276H4.48242V21.7649H8.96456V17.3276Z" fill="#2BC876" fill-opacity="0.4"/>
<path d="M13.447 12.8902H8.96484L8.96456 17.3276L13.447 17.3275V12.8902Z" fill="#2BC876" fill-opacity="0.4"/>
<path d="M17.9284 8.45293H13.4467L13.447 12.8902L17.9284 12.8903V8.45293Z" fill="#2BC876" fill-opacity="0.4"/>
<path d="M22.411 8.45293L17.9284 8.45293V12.8903H22.411V8.45293Z" fill="#2BC876" fill-opacity="0.4"/>
<path d="M26.8931 8.45293H22.411V12.8903H26.8931V8.45293Z" fill="#2BC876" fill-opacity="0.4"/>
<path d="M31.3757 8.45293L26.8931 8.45293V12.8903H31.3757V8.45293Z" fill="#2BC876" fill-opacity="0.4"/>
<path d="M35.8571 8.45293H31.3757V12.8903H35.8571V8.45293Z" fill="#2BC876" fill-opacity="0.4"/>
<path d="M40.3395 8.45293L35.8571 8.45293V12.8903H40.3395V8.45293Z" fill="#2BC876" fill-opacity="0.4"/>
<path d="M44.822 8.45293L40.3395 8.45293V12.8903H44.822V8.45293Z" fill="#2BC876" fill-opacity="0.4"/>
<path d="M49.3038 8.45293L44.822 8.45293V12.8903H49.3038V8.45293Z" fill="#2BC876" fill-opacity="0.4"/>
<path d="M266.944 17.3277L262.462 17.3276V21.765H266.944V17.3277Z" fill="#09140E"/>
<path d="M266.944 21.765H262.462V46.2023H266.944V21.765Z" fill="#09140E"/>
<path d="M266.944 46.2023H262.462V50.6395H266.944V46.2023Z" fill="#09140E"/>
<path d="M266.944 50.6395H262.462V55.077H266.944V50.6395Z" fill="#09140E"/>
<path d="M266.944 55.077H262.462V59.5143H266.944V55.077Z" fill="#09140E"/>
<path d="M266.944 59.5143H262.462V63.9515H266.944V59.5143Z" fill="#09140E"/>
<path d="M266.944 63.9515H262.462V68.389H266.944V63.9515Z" fill="#09140E"/>
<path d="M266.944 68.389H262.462V72.8263H266.944V68.389Z" fill="#09140E"/>
<path d="M266.944 72.8263H262.462V77.2635H266.944V72.8263Z" fill="#09140E"/>
<path d="M266.944 77.2635H262.462V81.7008H266.944V77.2635Z" fill="#09140E"/>
<path d="M188.24 134.939H183.758V139.376H188.24V134.939Z" fill="#09140E"/>
<path d="M183.758 134.939H179.275V139.376H183.758V134.939Z" fill="#09140E"/>
<path d="M179.275 134.939H174.793V139.376H179.275V134.939Z" fill="#09140E"/>
<path d="M174.793 134.939H170.311V139.376H174.793V134.939Z" fill="#09140E"/>
<path d="M170.311 134.939H165.829V139.376H170.311V134.939Z" fill="#09140E"/>
<path d="M165.829 134.939H161.347V139.376H165.829V134.939Z" fill="#09140E"/>
<path d="M161.347 134.939H156.865V139.376H161.347V134.939Z" fill="#09140E"/>
<path d="M156.865 134.939H152.383V139.376H156.865V134.939Z" fill="#09140E"/>
<path d="M152.383 134.939H147.9V139.376H152.383V134.939Z" fill="#09140E"/>
<path d="M147.9 134.939H143.418V139.376H147.9V134.939Z" fill="#09140E"/>
<path d="M143.418 134.939H138.936V139.376H143.418V134.939Z" fill="#09140E"/>
<path d="M138.936 134.939H134.454V139.376H138.936V134.939Z" fill="#09140E"/>
<path d="M134.454 134.939H129.972V139.376H134.454V134.939Z" fill="#09140E"/>
<path d="M129.972 134.939H125.49V139.376H129.972V134.939Z" fill="#09140E"/>
<path d="M125.49 134.939H121.008V139.376H125.49V134.939Z" fill="#09140E"/>
<path d="M121.008 134.939H116.525V139.376H121.008V134.939Z" fill="#09140E"/>
<path d="M116.525 134.939H112.044V139.376H116.525V134.939Z" fill="#09140E"/>
<path d="M112.044 134.939H107.561V139.376H112.044V134.939Z" fill="#09140E"/>
<path d="M107.561 134.939H103.079V139.376H107.561V134.939Z" fill="#09140E"/>
<path d="M103.079 134.939H98.5965V139.376H103.079V134.939Z" fill="#09140E"/>
<path d="M98.5965 134.939H94.1151V139.376H98.5965V134.939Z" fill="#09140E"/>
<path d="M94.1151 134.939H89.6326V139.376H94.1151V134.939Z" fill="#09140E"/>
<path d="M89.6326 134.939H85.1502V139.376H89.6326V134.939Z" fill="#09140E"/>
<path d="M85.1606 134.939H80.6785V139.376H85.1606V134.939Z" fill="#09140E"/>
<path d="M80.6785 134.939H76.1964V139.376H80.6785V134.939Z" fill="#09140E"/>
<path d="M76.1964 134.939H71.7147V139.376H76.1964V134.939Z" fill="#09140E"/>
<path d="M71.7147 134.939H67.2321V139.376H71.7147V134.939Z" fill="#09140E"/>
<path d="M67.2321 134.939H62.7499V139.376H67.2321V134.939Z" fill="#09140E"/>
<path d="M62.7499 134.939H58.2674V139.376H62.7499V134.939Z" fill="#09140E"/>
<path d="M58.2674 134.939L53.786 134.939L53.786 139.376H58.2674V134.939Z" fill="#09140E"/>
<path d="M53.786 134.939L49.3035 134.939V139.376H53.786L53.786 134.939Z" fill="#09140E"/>
<path d="M49.3035 139.376L44.8211 139.376V143.814H49.3033L49.3035 139.376Z" fill="#09140E"/>
<path d="M44.8211 143.814L40.3397 143.813V148.251H44.8218L44.8211 143.814Z" fill="#09140E"/>
<path d="M40.3397 148.251L35.8571 148.251V152.688H40.3392L40.3397 148.251Z" fill="#09140E"/>
<path d="M35.8571 152.688H31.375V157.125H35.8571L35.8571 152.688Z" fill="#09140E"/>
<path d="M31.375 157.125L26.8924 157.125L26.8931 161.563L31.3746 161.563L31.375 157.125Z" fill="#09140E"/>
<path d="M26.8931 161.563H22.411V166H26.8931V161.563Z" fill="#09140E"/>
<path d="M22.4107 157.125H17.9286V161.563L22.411 161.563L22.4107 157.125Z" fill="#09140E"/>
<path d="M253.508 134.939L242.025 134.939V139.376H253.507L253.508 134.939Z" fill="#09140E"/>
<path d="M257.99 130.502H253.508L253.508 134.939L257.99 134.939V130.502Z" fill="#09140E"/>
<path d="M262.471 126.064H257.989L257.99 130.502L262.471 130.501V126.064Z" fill="#09140E"/>
<path d="M266.944 121.627H262.462V126.064L266.944 126.064V121.627Z" fill="#09140E"/>
<path d="M266.944 117.19H262.462V121.627H266.944V117.19Z" fill="#09140E"/>
<path d="M266.944 112.752H262.462V117.19H266.944V112.752Z" fill="#09140E"/>
<path d="M266.944 108.325H262.462V112.762H266.944V108.325Z" fill="#09140E"/>
<path d="M266.944 103.888H262.462V108.325H266.944V103.888Z" fill="#09140E"/>
<path d="M266.944 99.4502H262.462V103.888H266.944V99.4502Z" fill="#09140E"/>
<path d="M266.944 95.0127H262.462V99.4502H266.944V95.0127Z" fill="#09140E"/>
<path d="M266.944 90.5755H262.462V95.0127H266.944V90.5755Z" fill="#09140E"/>
<path d="M266.944 86.1382H262.462V90.5755H266.944V86.1382Z" fill="#09140E"/>
<path d="M266.944 81.7008H262.462V86.1382H266.944V81.7008Z" fill="#09140E"/>
<path d="M192.721 134.939L188.24 134.939V139.376L192.721 139.376V134.939Z" fill="#09140E"/>
<path d="M197.204 134.939L192.721 134.939V139.376L197.204 139.376V134.939Z" fill="#09140E"/>
<path d="M242.025 134.939H237.543V139.376H242.025V134.939Z" fill="#09140E"/>
<path d="M237.543 134.939H233.061V139.376H237.543V134.939Z" fill="#09140E"/>
<path d="M233.061 134.939H228.579V139.376H233.061V134.939Z" fill="#09140E"/>
<path d="M228.579 134.939H224.097V139.376H228.579V134.939Z" fill="#09140E"/>
<path d="M224.097 134.939H219.615V139.376H224.097V134.939Z" fill="#09140E"/>
<path d="M219.615 134.939H215.133V139.376H219.615V134.939Z" fill="#09140E"/>
<path d="M215.133 134.939H210.65V139.376H215.133V134.939Z" fill="#09140E"/>
<path d="M210.65 134.939H206.168V139.376H210.65V134.939Z" fill="#09140E"/>
<path d="M206.168 134.939H201.686V139.376H206.168V134.939Z" fill="#09140E"/>
<path d="M201.686 134.939H197.204V139.376H201.686V134.939Z" fill="#09140E"/>
<path d="M4.48242 17.3276L0 17.3277V21.765L4.48242 21.7649V17.3276Z" fill="#09140E"/>
<path d="M253.508 4.01568H242.025V8.45293H253.508L253.508 4.01568Z" fill="#09140E"/>
<path d="M257.99 8.453L253.508 8.45293L253.508 12.8903H257.99V8.453Z" fill="#09140E"/>
<path d="M262.472 12.8904L257.99 12.8903V17.3276L262.472 17.3277V12.8904Z" fill="#09140E"/>
<path d="M192.722 4.01568H188.24V8.45293H192.722V4.01568Z" fill="#09140E"/>
<path d="M188.24 4.01568H183.758V8.45293L188.24 8.45293V4.01568Z" fill="#09140E"/>
<path d="M183.758 4.01568H179.276V8.45293H183.758V4.01568Z" fill="#09140E"/>
<path d="M179.276 4.01568H174.794V8.45293H179.276V4.01568Z" fill="#09140E"/>
<path d="M174.794 4.01568H170.311V8.45293H174.794V4.01568Z" fill="#09140E"/>
<path d="M170.311 4.01568H165.829V8.45293H170.311V4.01568Z" fill="#09140E"/>
<path d="M165.829 4.01568H161.347V8.45293H165.829V4.01568Z" fill="#09140E"/>
<path d="M161.347 4.01568H156.865V8.45293H161.347V4.01568Z" fill="#09140E"/>
<path d="M156.865 4.01568H152.383V8.45293H156.865V4.01568Z" fill="#09140E"/>
<path d="M152.383 4.01568H147.9V8.45293H152.383V4.01568Z" fill="#09140E"/>
<path d="M147.9 4.01568H143.419V8.45293H147.9V4.01568Z" fill="#09140E"/>
<path d="M143.419 4.01568H138.936V8.45293H143.419V4.01568Z" fill="#09140E"/>
<path d="M138.936 4.01568H134.454V8.45293H138.936V4.01568Z" fill="#09140E"/>
<path d="M134.454 4.01568H129.972V8.45293H134.454V4.01568Z" fill="#09140E"/>
<path d="M129.972 4.01568H125.49V8.45293H129.972V4.01568Z" fill="#09140E"/>
<path d="M125.49 4.01568H121.008V8.45293H125.49V4.01568Z" fill="#09140E"/>
<path d="M121.008 4.01568H116.525V8.45293H121.008V4.01568Z" fill="#09140E"/>
<path d="M116.525 4.01568H112.044V8.45293H116.525V4.01568Z" fill="#09140E"/>
<path d="M112.044 4.01568H107.561V8.45293H112.044V4.01568Z" fill="#09140E"/>
<path d="M107.561 4.01568H103.079V8.45293H107.561V4.01568Z" fill="#09140E"/>
<path d="M103.079 4.01568H98.5968V8.45293H103.079V4.01568Z" fill="#09140E"/>
<path d="M98.5968 4.01568H94.1153V8.45293H98.5968V4.01568Z" fill="#09140E"/>
<path d="M94.1153 4.01568H89.6329V8.45293H94.1153V4.01568Z" fill="#09140E"/>
<path d="M89.6329 4.01568H85.1505V8.45293H89.6329V4.01568Z" fill="#09140E"/>
<path d="M85.1609 4.01568H80.6788V8.45293H85.1609V4.01568Z" fill="#09140E"/>
<path d="M80.6788 4.01568H76.1964V8.45293H80.6788V4.01568Z" fill="#09140E"/>
<path d="M76.1964 4.01568H71.7149V8.45293H76.1964V4.01568Z" fill="#09140E"/>
<path d="M71.7149 4.01568H67.2324V8.45293H71.7149V4.01568Z" fill="#09140E"/>
<path d="M67.2324 4.01568H62.7502V8.45293H67.2324V4.01568Z" fill="#09140E"/>
<path d="M62.7502 4.01568H58.2677V8.45293H62.7502V4.01568Z" fill="#09140E"/>
<path d="M58.2677 4.01568H53.7862V8.45293H58.2677V4.01568Z" fill="#09140E"/>
<path d="M53.7862 4.01568H49.3038V8.45293H53.7862V4.01568Z" fill="#09140E"/>
<path d="M197.204 4.01568H192.722V8.45293H197.204V4.01568Z" fill="#09140E"/>
<path d="M242.025 4.01568H237.544V8.45293H242.025V4.01568Z" fill="#09140E"/>
<path d="M237.544 4.01568H233.061V8.45293L237.544 8.45293V4.01568Z" fill="#09140E"/>
<path d="M233.061 4.01568H228.579V8.45293H233.061V4.01568Z" fill="#09140E"/>
<path d="M228.579 4.01568H224.097V8.45293L228.579 8.45293V4.01568Z" fill="#09140E"/>
<path d="M224.097 4.01568H219.615V8.45293H224.097V4.01568Z" fill="#09140E"/>
<path d="M219.615 4.01568H215.133V8.45293L219.615 8.45293V4.01568Z" fill="#09140E"/>
<path d="M215.133 4.01568H210.65V8.45293L215.133 8.45293V4.01568Z" fill="#09140E"/>
<path d="M210.65 4.01568H206.169V8.45293H210.65V4.01568Z" fill="#09140E"/>
<path d="M206.169 4.01568H201.686V8.45293L206.169 8.45293V4.01568Z" fill="#09140E"/>
<path d="M201.686 4.01568H197.204V8.45293L201.686 8.45293V4.01568Z" fill="#09140E"/>
<path d="M8.96484 12.8902L4.48242 12.8903V17.3276H8.96456L8.96484 12.8902Z" fill="#09140E"/>
<path d="M13.4467 8.45293H8.96484V12.8902H13.447L13.4467 8.45293Z" fill="#09140E"/>
<path d="M17.9284 4.01568H13.4463L13.4467 8.45293H17.9284V4.01568Z" fill="#09140E"/>
<path d="M22.411 4.01568H17.9284V8.45293L22.411 8.45293V4.01568Z" fill="#09140E"/>
<path d="M26.8931 4.01568H22.411V8.45293H26.8931V4.01568Z" fill="#09140E"/>
<path d="M31.3757 4.01568H26.8931V8.45293L31.3757 8.45293V4.01568Z" fill="#09140E"/>
<path d="M35.8571 4.01568H31.3757V8.45293H35.8571V4.01568Z" fill="#09140E"/>
<path d="M40.3395 4.01568H35.8571V8.45293L40.3395 8.45293V4.01568Z" fill="#09140E"/>
<path d="M44.822 4.01568H40.3395V8.45293L44.822 8.45293V4.01568Z" fill="#09140E"/>
<path d="M49.3038 4.01568H44.822V8.45293L49.3038 8.45293V4.01568Z" fill="#09140E"/>
<path d="M17.9286 134.939H13.4464V139.376L17.9288 139.376L17.9286 134.939Z" fill="#09140E"/>
<path d="M13.446 130.501H8.96387V134.939L13.4464 134.939L13.446 130.501Z" fill="#09140E"/>
<path d="M8.96456 126.064L4.48242 126.064V130.501L8.96387 130.501L8.96456 126.064Z" fill="#09140E"/>
<path d="M4.48214 121.627H0V126.064L4.48242 126.064L4.48214 121.627Z" fill="#09140E"/>
<path d="M4.48214 117.189H0V121.627H4.48214V117.189Z" fill="#09140E"/>
<path d="M4.48214 112.752H0V117.189H4.48214V112.752Z" fill="#09140E"/>
<path d="M4.48214 108.315H0V112.752H4.48214V108.315Z" fill="#09140E"/>
<path d="M4.48214 103.888H0V108.325H4.48214V103.888Z" fill="#09140E"/>
<path d="M4.48214 99.4502H0V103.888H4.48214V99.4502Z" fill="#09140E"/>
<path d="M4.48214 95.0129H0V99.4502H4.48214V95.0129Z" fill="#09140E"/>
<path d="M4.48214 90.5755H0V95.0129H4.48214V90.5755Z" fill="#09140E"/>
<path d="M4.48214 86.1382H0V90.5755H4.48214V86.1382Z" fill="#09140E"/>
<path d="M4.48214 81.7009H0V86.1382H4.48214V81.7009Z" fill="#09140E"/>
<path d="M4.48242 21.7649L0 21.765V46.2023H4.48214L4.48242 21.7649Z" fill="#09140E"/>
<path d="M4.48214 46.2023H0V50.6396H4.48214V46.2023Z" fill="#09140E"/>
<path d="M4.48214 50.6396H0V55.0769H4.48214V50.6396Z" fill="#09140E"/>
<path d="M4.48214 55.0769H0V59.5143H4.48214V55.0769Z" fill="#09140E"/>
<path d="M4.48214 59.5143H0V63.9516H4.48214V59.5143Z" fill="#09140E"/>
<path d="M4.48214 63.9516H0V68.3889H4.48214V63.9516Z" fill="#09140E"/>
<path d="M4.48214 68.3889H0V72.8262H4.48214V68.3889Z" fill="#09140E"/>
<path d="M4.48214 72.8262H0V77.2636H4.48214V72.8262Z" fill="#09140E"/>
<path d="M4.48214 77.2636H0V81.7009H4.48214V77.2636Z" fill="#09140E"/>
<path d="M22.4107 139.376L17.9288 139.376L17.9286 143.813H22.4107V139.376Z" fill="#09140E"/>
<path d="M22.4107 143.813H17.9286V148.251H22.4107L22.4107 143.813Z" fill="#09140E"/>
<path d="M22.4107 148.251H17.9286V152.688H22.4107V148.251Z" fill="#09140E"/>
<path d="M22.4107 152.688H17.9286V157.125H22.4107V152.688Z" fill="#09140E"/>
</svg>
