<svg width="16" height="16" viewBox="0 0 16 16" fill="none" xmlns="http://www.w3.org/2000/svg">
<path d="M7.3337 8C7.3337 7.63181 7.63218 7.33333 8.00037 7.33333C8.36856 7.33333 8.66703 7.63181 8.66703 8C8.66703 8.36819 8.36856 8.66667 8.00037 8.66667C7.63218 8.66667 7.3337 8.36819 7.3337 8Z" stroke="#2BC876" stroke-linecap="round" stroke-linejoin="round"/>
<path d="M5.70803 2.87963C6.54312 2.39779 6.96067 2.15687 7.40458 2.06258C7.79736 1.97914 8.20329 1.97914 8.59607 2.06258C9.03998 2.15687 9.45753 2.39779 10.2926 2.87963L11.2914 3.45588C12.1265 3.93772 12.544 4.17864 12.8477 4.51569C13.1164 4.81391 13.3193 5.16524 13.4434 5.54689C13.5837 5.97823 13.5837 6.46007 13.5837 7.42374V8.57626C13.5837 9.53993 13.5837 10.0218 13.4434 10.4531C13.3193 10.8348 13.1164 11.1861 12.8477 11.4843C12.544 11.8214 12.1265 12.0623 11.2914 12.5441L10.2926 13.1204C9.45753 13.6022 9.03998 13.8431 8.59607 13.9374C8.20329 14.0209 7.79736 14.0209 7.40458 13.9374C6.96067 13.8431 6.54312 13.6022 5.70803 13.1204L4.70929 12.5441C3.87419 12.0623 3.45665 11.8214 3.15298 11.4843C2.88429 11.1861 2.68132 10.8348 2.55723 10.4531C2.41699 10.0218 2.41699 9.53993 2.41699 8.57626V7.42374C2.41699 6.46007 2.41699 5.97823 2.55723 5.54689C2.68132 5.16524 2.88429 4.81391 3.15298 4.51569C3.45665 4.17864 3.87419 3.93772 4.70929 3.45589L5.70803 2.87963Z" stroke="#2BC876" stroke-linecap="round" stroke-linejoin="round"/>
</svg>
