<svg width="10" height="8" viewBox="0 0 10 8" fill="none" xmlns="http://www.w3.org/2000/svg">
<path d="M0 7.5V6.5H0.5V6H1V5.5H1.5V5H2V4.5H2.5V3.5H2V3H1.5V2.5H1V2H0.5V1.5H0V0.5H0.5V0H1.5V0.5H2V1H2.5V1.5H3V2H3.5V2.5H4V3H4.5V3.5H5V4.5H4.5V5H4V5.5H3.5V6H3V6.5H2.5V7H2V7.5H1.5V8H0.5V7.5H0Z" fill="#2BC876"/>
<path d="M5 7.5V6.5H5.5V6H6V5.5H6.5V5H7V4.5H7.5V3.5H7V3H6.5V2.5H6V2H5.5V1.5H5V0.5H5.5V0H6.5V0.5H7V1H7.5V1.5H8V2H8.5V2.5H9V3H9.5V3.5H10V4.5H9.5V5H9V5.5H8.5V6H8V6.5H7.5V7H7V7.5H6.5V8H5.5V7.5H5Z" fill="#2BC876"/>
</svg>
