<svg width="32" height="32" viewBox="0 0 32 32" fill="none" xmlns="http://www.w3.org/2000/svg">
<path d="M30.4702 4.56995H32.0002V12.1899H30.4702V4.56995Z" fill="#2BC876"/>
<path d="M28.9502 12.1899H30.4702V13.7099H28.9502V12.1899Z" fill="#2BC876"/>
<path d="M28.9502 3.05005H30.4702V4.57005H28.9502V3.05005Z" fill="#2BC876"/>
<path d="M27.4301 27.43V22.86H30.4701V21.33H28.9501V19.81H27.4301V18.29H25.9001V19.81H24.3801V21.33H22.8501V22.86H25.9001V27.43H27.4301Z" fill="#2BC876"/>
<path d="M27.4302 13.71H28.9502V15.24H27.4302V13.71Z" fill="#2BC876"/>
<path d="M27.4302 1.52002H28.9502V3.05002H27.4302V1.52002Z" fill="#2BC876"/>
<path d="M25.8999 9.14001H27.4299V10.67H25.8999V9.14001Z" fill="#2BC876"/>
<path d="M24.3799 27.4301H25.8999V28.9501H24.3799V27.4301Z" fill="#2BC876"/>
<path d="M19.8101 15.24H27.4301V16.76H19.8101V15.24Z" fill="#2BC876"/>
<path d="M21.3301 7.62H25.9001V9.13999H21.3301V7.62Z" fill="#2BC876"/>
<path d="M21.3301 10.67V12.19H22.8501V13.71H24.3801V12.19H25.9001V10.67H21.3301Z" fill="#2BC876"/>
<path d="M25.9001 6.10005V4.57005H24.3801V3.05005H22.8501V4.57005H21.3301V6.10005H25.9001Z" fill="#2BC876"/>
<path d="M18.2798 28.95H24.3798V30.48H18.2798V28.95Z" fill="#2BC876"/>
<path d="M19.8101 0H27.4301V1.52H19.8101V0Z" fill="#2BC876"/>
<path d="M19.8101 6.09998H21.3301V7.61998H19.8101V6.09998Z" fill="#2BC876"/>
<path d="M18.2798 13.71H19.8098V15.24H18.2798V13.71Z" fill="#2BC876"/>
<path d="M18.2798 1.52002H19.8098V3.05002H18.2798V1.52002Z" fill="#2BC876"/>
<path d="M16.7598 12.1899H18.2798V13.7099H16.7598V12.1899Z" fill="#2BC876"/>
<path d="M16.7598 3.05005H18.2798V4.57005H16.7598V3.05005Z" fill="#2BC876"/>
<path d="M15.2402 19.8101H16.7602V27.4301H15.2402V19.8101Z" fill="#2BC876"/>
<path d="M15.2402 4.56995H16.7602V12.1899H15.2402V4.56995Z" fill="#2BC876"/>
<path d="M13.71 27.4301H15.24V28.9501H13.71V27.4301Z" fill="#2BC876"/>
<path d="M13.71 18.29H15.24V19.81H13.71V18.29Z" fill="#2BC876"/>
<path d="M12.1899 28.95H13.7099V30.48H12.1899V28.95Z" fill="#2BC876"/>
<path d="M12.1899 16.76H13.7099V18.29H12.1899V16.76Z" fill="#2BC876"/>
<path d="M4.56982 30.48H12.1898V32H4.56982V30.48Z" fill="#2BC876"/>
<path d="M7.62012 1.52002H13.7101V3.05002H7.62012V1.52002Z" fill="#2BC876"/>
<path d="M7.62012 27.4301H10.6601V28.9501H7.62012V27.4301Z" fill="#2BC876"/>
<path d="M7.62012 18.29H10.6601V19.81H7.62012V18.29Z" fill="#2BC876"/>
<path d="M6.09004 27.4301H7.62004V25.9101H9.14004V24.3801H6.09004V22.8601H10.66V21.3301H7.62004V19.8101H6.09004V21.3301H3.04004V22.8601H4.57004V24.3801H3.04004V25.9101H6.09004V27.4301Z" fill="#2BC876"/>
<path d="M4.56982 15.24H12.1898V16.76H4.56982V15.24Z" fill="#2BC876"/>
<path d="M6.08984 3.05005H7.61984V4.57005H6.08984V3.05005Z" fill="#2BC876"/>
<path d="M3.04004 28.95H4.57004V30.48H3.04004V28.95Z" fill="#2BC876"/>
<path d="M3.04004 16.76H4.57004V18.29H3.04004V16.76Z" fill="#2BC876"/>
<path d="M3.04002 12.1899H4.57002V13.7099H6.09002V12.1899H7.62002V10.6699H9.14002V9.13995H6.09002V4.56995H4.57002V9.13995H1.52002V10.6699H3.04002V12.1899Z" fill="#2BC876"/>
<path d="M1.52002 27.4301H3.04002V28.9501H1.52002V27.4301Z" fill="#2BC876"/>
<path d="M1.52002 18.29H3.04002V19.81H1.52002V18.29Z" fill="#2BC876"/>
<path d="M0 19.8101H1.52V27.4301H0V19.8101Z" fill="#2BC876"/>
</svg>
