<svg width="16" height="15" viewBox="0 0 16 15" fill="none" xmlns="http://www.w3.org/2000/svg">
<path d="M12.6622 3.2295C12.6514 2.74423 12.6124 2.33886 12.4636 1.97955C12.1929 1.32615 11.6738 0.807014 11.0204 0.536361C10.7418 0.420988 10.4524 0.375301 10.1396 0.353954C9.83784 0.333368 9.46924 0.333368 9.02277 0.333374H6.63737C5.72869 0.333368 5.00599 0.333368 4.42293 0.381001C3.82587 0.429788 3.31675 0.531828 2.85059 0.769348C2.09794 1.15284 1.48602 1.76477 1.10253 2.51741C0.864999 2.98358 0.762959 3.49269 0.714179 4.08976C0.666546 4.67281 0.666546 5.39547 0.666552 6.30411L0.666526 8.74777C0.666194 9.56804 0.665832 10.4606 0.971032 11.1974C1.37701 12.1776 2.15571 12.9562 3.13582 13.3622C3.53687 13.5284 3.96519 13.5994 4.46399 13.6334C4.90476 13.6635 5.43846 13.6664 6.09536 13.6667C6.07727 13.5091 6.07776 13.3468 6.09885 13.1824C6.18957 12.4754 6.36711 11.7826 6.62717 11.1198C6.85444 10.5406 7.29444 10.097 7.83077 9.85551C7.63417 9.12124 7.86697 8.30677 8.49224 7.79244C8.94291 7.42171 9.46937 7.13091 10.0535 6.94671C11.4704 6.49997 12.9414 6.76411 14.0817 7.53877C14.4134 7.39764 14.7872 7.34444 15.1696 7.40371C15.2225 7.41191 15.2746 7.42217 15.3259 7.43431C15.3211 7.20237 15.3132 6.99097 15.3 6.79751C15.2659 6.29871 15.1948 5.87037 15.0287 5.46931C14.6228 4.48919 13.844 3.7105 12.864 3.30452C12.7974 3.27699 12.7303 3.25207 12.6622 3.2295ZM10.0488 1.68419C10.2938 1.70091 10.4211 1.73134 10.5101 1.7682C10.8368 1.90353 11.0964 2.16309 11.2317 2.4898C11.2785 2.60268 11.3054 2.74485 11.3196 3.02109C10.8748 2.99999 10.3544 3.00001 9.73371 3.00004H6.30857C5.55271 3.00004 4.95151 3.00004 4.46399 3.03331C3.96519 3.06734 3.53687 3.1384 3.13582 3.30452C2.74361 3.46698 2.38365 3.68913 2.06693 3.95997C2.11259 3.58216 2.18545 3.32898 2.29053 3.12273C2.54619 2.62097 2.95415 2.21302 3.45591 1.95736C3.70279 1.83157 4.0169 1.75195 4.53151 1.70991C5.05391 1.66723 5.72213 1.66671 6.66657 1.66671H8.99991C9.47497 1.66671 9.79784 1.66707 10.0488 1.68419ZM10.8554 9.48997C11.6548 9.23791 12.4945 9.51391 12.9981 10.1221C12.929 10.0928 12.8604 10.0623 12.7924 10.0305C12.4588 9.87444 12.062 10.0183 11.906 10.3518C11.75 10.6853 11.8938 11.0821 12.2273 11.2382C12.7736 11.4938 13.349 11.6809 13.9405 11.7954C13.9869 11.8044 14.0335 11.81 14.08 11.8122C14.4858 11.8318 14.8674 11.5978 15.0292 11.2152C15.264 10.6603 15.4295 10.0783 15.5219 9.48224C15.5783 9.11844 15.3291 8.77771 14.9652 8.72131C14.6014 8.66491 14.2607 8.91411 14.2043 9.27797C14.1947 9.33991 14.1842 9.40164 14.1726 9.46317C13.357 8.31757 11.868 7.77264 10.4544 8.21837C10.0358 8.35031 9.66031 8.55804 9.33931 8.82211C9.05497 9.05604 9.01411 9.47611 9.24804 9.76051C9.48191 10.0448 9.90204 10.0857 10.1864 9.85177C10.3778 9.69437 10.6024 9.56977 10.8554 9.48997ZM7.86837 11.6067C8.02584 11.2054 8.42417 10.9578 8.84771 10.9871C8.87877 10.9892 8.91011 10.9929 8.94151 10.9981C9.53577 11.0971 10.116 11.269 10.6688 11.5102C11.0062 11.6575 11.1605 12.0504 11.0132 12.3879C10.866 12.7254 10.4731 12.8796 10.1356 12.7324C10.0509 12.6954 9.96537 12.6604 9.87917 12.6274C10.378 13.267 11.2392 13.563 12.0582 13.3047C12.3134 13.2242 12.5397 13.0982 12.7322 12.9387C13.0158 12.7039 13.436 12.7434 13.6709 13.0269C13.9057 13.3105 13.8662 13.7308 13.5827 13.9656C13.2598 14.233 12.8814 14.4432 12.4591 14.5764C11.0598 15.0175 9.58657 14.4881 8.76584 13.3661C8.75784 13.4178 8.75051 13.4697 8.74384 13.5216C8.69697 13.8868 8.36297 14.1449 7.99777 14.098C7.63257 14.0512 7.37451 13.7172 7.42137 13.352C7.49811 12.7537 7.64837 12.1676 7.86837 11.6067Z" fill="#2BC876"/>
</svg>
