<svg width="32" height="32" viewBox="0 0 32 32" fill="none" xmlns="http://www.w3.org/2000/svg">
<path d="M7.62012 29.715H19.8101V31.235H7.62012V29.715Z" fill="#2BC876"/>
<path d="M19.8101 28.1951H24.3801V29.7151H19.8101V28.1951Z" fill="#2BC876"/>
<path d="M15.2398 26.665V25.145H4.56982V26.665H6.09982V29.715H7.61982V26.665H15.2398Z" fill="#2BC876"/>
<path d="M12.1898 22.0951V20.5751H1.52979V22.0951H3.04979V25.1451H4.56979V22.0951H12.1898Z" fill="#2BC876"/>
<path d="M0 17.525H1.53V20.575H0V17.525Z" fill="#2BC876"/>
<path d="M16.7598 16.005H18.2898V17.525H16.7598V16.005Z" fill="#2BC876"/>
<path d="M4.56982 16.005H10.6698V17.525H4.56982V16.005Z" fill="#2BC876"/>
<path d="M15.2402 12.955H16.7602V16.005H15.2402V12.955Z" fill="#2BC876"/>
<path d="M10.6699 14.475H12.1899V16.005H10.6699V14.475Z" fill="#2BC876"/>
<path d="M3.0498 14.475H4.5698V16.005H3.0498V14.475Z" fill="#2BC876"/>
<path d="M7.61982 14.475V12.955H9.13982V11.425H4.56982V12.955H6.09982V14.475H7.61982Z" fill="#2BC876"/>
<path d="M1.52979 12.955H3.04978V14.475H1.52979V12.955Z" fill="#2BC876"/>
<path d="M13.7202 9.90503H15.2402V12.955H13.7202V9.90503Z" fill="#2BC876"/>
<path d="M0 5.33496H1.53V12.955H0V5.33496Z" fill="#2BC876"/>
<path d="M27.4299 9.90002V11.42H25.9099V12.95H27.4299V26.66H24.3799V28.2H27.4299V29.72H31.9999V9.90002H27.4299ZM30.4799 26.66H28.9499V23.61H30.4799V26.66Z" fill="#2BC876"/>
<path d="M24.3799 9.90503H25.9099V11.425H24.3799V9.90503Z" fill="#2BC876"/>
<path d="M9.14014 9.90503H10.6701V11.425H9.14014V9.90503Z" fill="#2BC876"/>
<path d="M21.3398 8.38501H24.3798V9.90501H21.3398V8.38501Z" fill="#2BC876"/>
<path d="M12.1899 8.38501H13.7199V9.90501H12.1899V8.38501Z" fill="#2BC876"/>
<path d="M4.56982 8.38501H9.13982V9.90501H4.56982V8.38501Z" fill="#2BC876"/>
<path d="M19.8101 6.85498H21.3401V8.38498H19.8101V6.85498Z" fill="#2BC876"/>
<path d="M3.0498 6.85498H4.5698V8.38498H3.0498V6.85498Z" fill="#2BC876"/>
<path d="M18.29 5.33496H19.81V6.85496H18.29V5.33496Z" fill="#2BC876"/>
<path d="M9.13982 6.85506V5.33506H7.61982V3.81506H6.09982V5.33506H4.56982V6.85506H9.13982Z" fill="#2BC876"/>
<path d="M16.7598 3.81506H18.2898V5.33506H16.7598V3.81506Z" fill="#2BC876"/>
<path d="M10.6699 3.81506H12.1899V8.38506H10.6699V3.81506Z" fill="#2BC876"/>
<path d="M1.52979 3.81506H3.04978V5.33506H1.52979V3.81506Z" fill="#2BC876"/>
<path d="M12.1899 2.28503H16.7599V3.81503H12.1899V2.28503Z" fill="#2BC876"/>
<path d="M3.0498 2.28503H4.5698V3.81503H3.0498V2.28503Z" fill="#2BC876"/>
<path d="M4.56982 0.765015H10.6698V2.28501H4.56982V0.765015Z" fill="#2BC876"/>
</svg>
